<svg preserveAspectRatio="none" width="99" height="29" viewBox="0 0 99 29" fill="none" xmlns="http://www.w3.org/2000/svg">
<path vector-effect="non-scaling-stroke" d="M7.82799 23.2649C13.3014 22.9608 23.7259 19.0566 23.7259 19.0566C23.7259 19.0566 15.9328 19.0566 12.0363 19.0566C4.41035 19.0566 7.38605 8.53593 14.1404 8.53593C19.7585 8.53593 26.2628 16.9525 16.2445 16.9525C2.58661 16.9525 21.6218 6.87096 21.6218 6.43179C21.6218 3.23663 15.2314 6.43179 12.0363 6.43179C7.79396 6.43179 5.72385 5.82097 5.72385 10.6401C5.72385 18.1887 2.73794 21.1607 14.1404 21.1607C17.6266 21.1607 21.1817 21.3654 24.6611 21.1607C27.7782 20.9774 27.7782 15.0317 24.6611 14.8483C20.9969 14.6328 19.3987 17.0119 16.2445 18.589C13.9168 19.7529 21.8686 19.0566 23.609 19.0566C37.6366 19.0566 51.6641 19.0566 65.6917 19.0566C74.1082 19.0566 82.5248 19.0566 90.9413 19.0566C96.6157 19.0566 92.9256 14.9489 90.9413 12.7442C88.2173 9.71748 84.1978 10.6401 80.4206 10.6401C66.3931 10.6401 52.3655 10.6401 38.3379 10.6401C32.098 10.6401 23.3971 9.04735 17.4135 10.757C16.3966 11.0475 11.0062 30.6074 20.4528 21.1607" stroke="white" stroke-width="10" stroke-linecap="round"/>
</svg>
