<svg preserveAspectRatio="none" width="404" height="38" viewBox="0 0 404 38" fill="none" xmlns="http://www.w3.org/2000/svg">
<path vector-effect="non-scaling-stroke" d="M282.901 28.0562C275.158 28.0562 270.26 23.848 262.911 23.848C262.009 23.848 255.502 21.9186 258.119 20.1073C263.986 16.045 283.345 19.6397 290.265 19.6397C312.613 19.6397 339.237 23.4659 361.104 18.2369C372.505 15.5108 384.382 13.5573 395.589 10.7556C405.276 8.3337 384.27 5.14453 383.198 5.14453C350.882 5.14453 317.666 10.5995 285.706 14.6131C238.906 20.4904 192.793 25.5283 145.664 27.5886C116.118 28.8803 86.4006 28.0562 56.823 28.0562C42.2827 28.0562 28.3715 32.2645 14.0389 32.2645C8.8498 32.2645 -0.40632 34.0681 9.36302 30.1604" stroke="black" stroke-width="10" stroke-linecap="round"/>
</svg>
