<?xml version="1.0" encoding="UTF-8"?>
<svg version="1.1" xmlns="http://www.w3.org/2000/svg" width="80" height="72">
<path d="M0 0 C26.4 0 52.8 0 80 0 C80 23.76 80 47.52 80 72 C53.6 72 27.2 72 0 72 C0 48.24 0 24.48 0 0 Z " fill="#042E6F" transform="translate(0,0)"/>
<path d="M0 0 C6.80740487 3.92645537 11.2467596 9.73116325 13.2890625 17.3203125 C14.49965409 25.95669784 12.60815536 32.37248708 7.81640625 39.515625 C2.92813037 45.7790896 -2.63850837 48.55944813 -10.4453125 49.73046875 C-18.46170263 50.17204956 -24.77409244 47.79748827 -30.78515625 42.48828125 C-36.31161595 36.61424547 -38.77037477 30.97710991 -39.2109375 22.9453125 C-38.97771809 15.92929518 -36.52882945 10.45064854 -31.84375 5.24609375 C-22.47529134 -3.4479817 -11.68873895 -5.30631641 0 0 Z " fill="#3198EE" transform="translate(49.7109375,9.6796875)"/>
<path d="M0 0 C1 1 1 1 1.125 3.4375 C1 6 1 6 0 8 C2.1028059 10.68726558 2.1028059 10.68726558 5 13 C8.10615338 12.7602129 8.10615338 12.7602129 11 12 C11.99 12.66 12.98 13.32 14 14 C13.34 15.98 12.68 17.96 12 20 C5.72726361 19.66985598 1.4679349 18.59235841 -3 14 C-6.14140997 9.49638571 -7.55610948 5.56109476 -7 0 C-4.31633121 -1.3418344 -2.84719317 -0.73004953 0 0 Z " fill="#E8F9FE" transform="translate(34,22)"/>
<path d="M0 0 C0.66 0.33 1.32 0.66 2 1 C1.814375 1.969375 1.62875 2.93875 1.4375 3.9375 C1.2209375 5.4534375 1.2209375 5.4534375 1 7 C2.89153589 8.89153589 6.20397656 8.42440863 8.7734375 8.62109375 C11 9 11 9 14 11 C14.3125 14 14.3125 14 14 17 C12 19 12 19 10.0546875 19.1953125 C8.03645833 19.13020833 6.01822917 19.06510417 4 19 C3.67 18.34 3.34 17.68 3 17 C5.64 17 8.28 17 11 17 C11.33 15.35 11.66 13.7 12 12 C7.89776415 10.98459888 7.89776415 10.98459888 4 12 C-0.875 8.375 -0.875 8.375 -2 5 C-1.0625 2.3125 -1.0625 2.3125 0 0 Z " fill="#4F9EDF" transform="translate(35,24)"/>
</svg>
