<?xml version="1.0" encoding="UTF-8"?>
<svg version="1.1" xmlns="http://www.w3.org/2000/svg" width="141" height="131">
<path d="M0 0 C46.53 0 93.06 0 141 0 C141 43.23 141 86.46 141 131 C94.47 131 47.94 131 0 131 C0 87.77 0 44.54 0 0 Z " fill="#08D7C8" transform="translate(0,0)"/>
<path d="M0 0 C46.53 0 93.06 0 141 0 C141 43.23 141 86.46 141 131 C94.47 131 47.94 131 0 131 C0 87.77 0 44.54 0 0 Z M41 21 C38.37288025 24.84620084 35.87686435 28.79369614 34.15234375 33.1328125 C32.53469156 35.7539574 30.63787907 36.44167286 27.875 37.75 C18.02784045 42.91846987 12.65787818 49.49733691 9 60 C6.51658059 70.37941957 8.14067007 79.92054167 13.25 89.29296875 C17.46837475 95.48870667 23.87617284 101.13924834 31.3125 102.69140625 C32.199375 102.79324219 33.08625 102.89507812 34 103 C34.13535156 103.54527344 34.27070312 104.09054688 34.41015625 104.65234375 C37.23038753 114.53159705 42.59378624 120.75756721 51.47265625 125.80859375 C60.27775055 129.95937236 70.11586883 130.58924078 79.5 128.0546875 C89.2154111 124.19281159 94.75685096 119.01565872 100 110 C100.391875 108.948125 100.78375 107.89625 101.1875 106.8125 C103.71828165 102.88542503 107.03980168 101.70795788 111.140625 99.625 C119.72994054 94.74364035 123.87522023 87.63066638 127.25 78.6875 C129.31306652 68.54408963 128.00528127 59.67162125 122.64453125 50.7421875 C118.30441345 44.6218069 113.67744151 39.51727489 106.25 37.6875 C103.921875 37.015625 103.921875 37.015625 102 36 C100.93333442 33.88474792 100.47688316 31.84239513 99.91796875 29.54296875 C97.33975604 22.40077099 90.47356685 16.77957819 84.1171875 12.9375 C69.89465719 6.6397006 51.39819641 8.6870462 41 21 Z " fill="#F5F8F8" transform="translate(0,0)"/>
<path d="M0 0 C-0.01281842 4.07625825 -0.17033513 8.00155059 -1 12 C-3.8125 14.4375 -3.8125 14.4375 -7 16 C-11.87708867 21.15577945 -14.14412254 26.30369117 -14.5 33.3125 C-14.29725111 40.01242908 -12.02223646 45.78564093 -7.40234375 50.69921875 C-5.39970749 52.41646704 -3.36030518 53.81984741 -1 55 C-0.9071875 53.329375 -0.9071875 53.329375 -0.8125 51.625 C-0.00347661 45.04728806 3.05413858 38.46862918 8 34 C11.11198065 35.49836105 14.0534615 37.19933758 17 39 C16.01910897 40.98377512 15.02605377 42.95231668 13.96484375 44.89453125 C11.58365965 49.34001184 10.41904623 52.97144524 10 58 C16.04383212 56.42334814 21.00988858 54.80824293 26 51 C25.505 47.04 25.505 47.04 25 43 C30.94 43 36.88 43 43 43 C42.67 45.64 42.34 48.28 42 51 C46.3163531 55.82415935 51.78124116 57.13226621 58 58 C58.125 64.625 58.125 64.625 57 68 C49.42508237 68.61088045 44.40929049 67.10703633 38 63 C36.2109375 61.33203125 36.2109375 61.33203125 35 60 C32.72451971 61.13229641 30.45720827 62.27819966 28.1953125 63.4375 C27.18210938 63.953125 26.16890625 64.46875 25.125 65 C24.11695313 65.515625 23.10890625 66.03125 22.0703125 66.5625 C19.09195314 67.95694815 16.1379612 69.02582697 13 70 C13 70.99 13 71.98 13 73 C12.401875 72.79375 11.80375 72.5875 11.1875 72.375 C8.71549154 71.69328085 8.71549154 71.69328085 6 74 C5.74969023 76.58380177 5.74969023 76.58380177 6 79 C3.32098068 76.68118495 2.33795597 74.68185532 1.3125 71.3125 C1.06113281 70.50425781 0.80976562 69.69601563 0.55078125 68.86328125 C0.36902344 68.24839844 0.18726562 67.63351563 0 67 C-0.88816406 66.89558594 -1.77632812 66.79117188 -2.69140625 66.68359375 C-9.99882052 65.17379741 -15.5695017 60.05468416 -19.9375 54.1875 C-25.45531261 45.58543837 -27.47134069 36.50497811 -25.49609375 26.4296875 C-22.9142927 16.78112815 -17.48422191 8.04816064 -8.87890625 2.67578125 C-5.68318981 1.00462678 -3.65532396 0 0 0 Z " fill="#07AAD6" transform="translate(34,36)"/>
<path d="M0 0 C9.05696929 -0.7926683 16.91669625 3.76080141 24.0859375 8.890625 C30.5558997 14.71502557 35.22967995 24.03838419 36.0859375 32.69921875 C36.40874998 44.23551725 32.42896954 53.49673257 24.59765625 61.9140625 C20.46309055 65.93278908 15.75400122 69.2890625 9.84765625 69.2890625 C9.4158026 59.89192701 9.4158026 59.89192701 12.77734375 56.12890625 C14.38276013 54.84720498 15.99491721 53.57390704 17.61328125 52.30859375 C22.51601754 47.87727441 24.007114 41.71758642 24.41015625 35.2890625 C24.12155414 28.96967149 21.59186937 23.28593974 17.3203125 18.62109375 C10.60135004 12.79115431 3.57693277 11.89526055 -5.15234375 12.2890625 C-8.8943375 13.39047953 -12.16169735 14.75450596 -15.15234375 17.2890625 C-16.11507943 19.80204948 -16.15234375 21.56756551 -16.15234375 24.2890625 C-17.14234375 24.9490625 -18.13234375 25.6090625 -19.15234375 26.2890625 C-19.95032593 28.70513667 -19.95032593 28.70513667 -20.33984375 31.4140625 C-20.57767578 32.77917969 -20.57767578 32.77917969 -20.8203125 34.171875 C-20.98466797 35.21988281 -20.98466797 35.21988281 -21.15234375 36.2890625 C-25.97594564 36.48200658 -29.64881113 36.04653864 -34.15234375 34.2890625 C-34.32487239 29.19946764 -34.11860146 26.008081 -32.15234375 21.2890625 C-32.28175855 19.23949387 -32.28175855 19.23949387 -33.15234375 17.2890625 C-37.47881405 14.06003832 -42.98047875 12.58202875 -48.15234375 11.2890625 C-48.27734375 3.5390625 -48.27734375 3.5390625 -47.15234375 1.2890625 C-39.5457489 0.62761947 -33.18623768 3.10465887 -27.02734375 7.5390625 C-26.40859375 8.1165625 -25.78984375 8.6940625 -25.15234375 9.2890625 C-22.87626607 8.16460408 -20.62457924 7.00843172 -18.3828125 5.81640625 C-11.99158199 2.47721393 -7.07613031 0.95033329 0 0 Z " fill="#0459C7" transform="translate(92.15234375,33.7109375)"/>
<path d="M0 0 C3.76380149 9.86988288 5.90299219 18.98665495 1.72265625 29.0859375 C0.27522416 31.83348034 -1.28019361 34.41590316 -3 37 C-3.598125 37.928125 -4.19625 38.85625 -4.8125 39.8125 C-12.56420746 47.56420746 -21.01656284 51.25704819 -31.875 51.4375 C-42.12651853 51.36199106 -50.57179609 48.1794124 -58 41 C-59.95437569 38.03882471 -61.03599136 36.29568892 -60.9375 32.75 C-59.67900401 30.40080749 -58.48489157 29.87702055 -56 29 C-55.01 29 -54.02 29 -53 29 C-53.33 28.34 -53.66 27.68 -54 27 C-53.2265625 26.76925781 -52.453125 26.53851563 -51.65625 26.30078125 C-45.78385246 24.46202311 -40.71154269 22.58822845 -35.71875 18.953125 C-34 18 -34 18 -30 18 C-28.25390625 19.0234375 -28.25390625 19.0234375 -26.5625 20.375 C-20.92585165 24.59354866 -15.90460595 25.42837685 -9 26 C-8.40913418 13.64678147 -8.40913418 13.64678147 -12 2 C-7.42756699 -0.72168631 -5.1521722 -1.08960504 0 0 Z " fill="#08B8E8" transform="translate(100,78)"/>
<path d="M0 0 C6.53438667 2.27042249 9.53674438 6.41491507 12.875 12.3125 C15.17079618 19.8376097 14.57431838 26.46432181 11.4140625 33.66015625 C9.04349069 37.58273226 5.82380794 40.50045455 2 43 C1.34 43 0.68 43 0 43 C-0.23074219 42.14277344 -0.46148437 41.28554687 -0.69921875 40.40234375 C-2.79828687 32.71743296 -2.79828687 32.71743296 -6.8125 25.9375 C-9 23 -9 23 -8.78515625 21.0390625 C-7.96053908 18.8975194 -6.95488247 17.3033654 -5.625 15.4375 C-2.493677 10.63613807 -1.25330643 5.54307883 0 0 Z " fill="#F1F6F9" transform="translate(103,48)"/>
<path d="M0 0 C0.22042969 1.01707031 0.22042969 1.01707031 0.4453125 2.0546875 C2.00001981 8.50582934 4.15368434 13.38295197 7.98828125 18.80859375 C9 21 9 21 8.32421875 22.98828125 C7.88722656 23.65214844 7.45023438 24.31601563 7 25 C3.84169493 30.95219032 1.34938712 36.37573597 0 43 C-5.28686129 41.60053672 -7.94163587 38.29752891 -11 34 C-14.37318108 28.1531528 -14.95189811 22.59982693 -14 16 C-12.11280403 10.1622738 -7.23851591 0 0 0 Z " fill="#F3F8F8" transform="translate(33,48)"/>
<path d="M0 0 C2.79290004 1.35887738 5.45367728 2.85540666 8.125 4.4375 C12.88268634 7.1132038 17.73165192 8.6471674 23 10 C19.53314325 16.06699932 14.73512493 20.75495836 8 23 C0.12556232 23.61034396 -7.59205805 24.19485717 -14 19 C-16.51920087 16.46629318 -18.80906211 13.82083254 -21 11 C-18.15893762 9.10595841 -15.8954112 8.19874068 -12.6875 7.125 C-7.9096575 5.43535239 -3.64201089 3.64201089 0 0 Z " fill="#EEF7F9" transform="translate(67,95)"/>
<path d="M0 0 C3.15156335 2.20839475 5.08246905 4.23533884 7.140625 7.5 C6.810625 8.49 6.480625 9.48 6.140625 10.5 C4.171875 11.23828125 4.171875 11.23828125 1.640625 11.8125 C-4.00312619 13.32509038 -8.21182523 16.03117662 -12.859375 19.5 C-15.68144474 18.13018637 -18.35522202 16.60812783 -21.046875 15 C-25.58682745 12.44344871 -29.74333709 11.39327646 -34.859375 10.5 C-34.859375 6.46554193 -33.38838597 5.12588736 -30.74609375 2.21875 C-22.04468182 -5.70800207 -9.89283337 -5.61657637 0 0 Z " fill="#EBF8F9" transform="translate(81.859375,24.5)"/>
<path d="M0 0 C5.94 0 11.88 0 18 0 C17.67 2.64 17.34 5.28 17 8 C21.3163531 12.82415935 26.78124116 14.13226621 33 15 C33.125 21.625 33.125 21.625 32 25 C23.09602855 25.71806221 17.6505865 22.95946414 10.25 18.25 C5.96808401 13.96808401 2.40775071 8.5686367 0 3 C0 2.01 0 1.02 0 0 Z " fill="#0458C4" transform="translate(59,79)"/>
<path d="M0 0 C7.70784686 -0.67024755 14.65967358 1.80004829 20.625 6.75 C21.40875 7.4925 22.1925 8.235 23 9 C21.02 11.64 19.04 14.28 17 17 C12.99009223 15.44777764 9.08951146 13.69622277 5.18359375 11.90234375 C3.13206262 11.05457328 1.16442017 10.47607428 -1 10 C-1.125 2.25 -1.125 2.25 0 0 Z " fill="#08A8D5" transform="translate(45,35)"/>
<path d="M0 0 C4.08087851 3.63970245 6.26680571 6.80041714 8 12 C8.1875 15.4375 8.1875 15.4375 8 18 C2.45097829 18.55490217 -1.40743186 16.92788459 -6 14 C-7.75390625 12.51953125 -7.75390625 12.51953125 -9 11 C-8.71263151 8.12631508 -7.91403285 5.74209856 -7 3 C-3.4375 1.3125 -3.4375 1.3125 0 0 Z " fill="#E9F6F9" transform="translate(84,76)"/>
<path d="M0 0 C-0.17276773 6.78505979 -1.65528861 11.69430883 -6 17 C-8 18 -8 18 -11.5 16.875 C-15 15 -15 15 -16.5 12.5625 C-17.03821836 9.80413092 -16.99966013 8.59507731 -16 6 C-14.2578125 4.55078125 -14.2578125 4.55078125 -12.125 3.3125 C-11.42632812 2.89613281 -10.72765625 2.47976562 -10.0078125 2.05078125 C-6.54643088 0.23927998 -3.84703174 -0.10397383 0 0 Z " fill="#E6F6FA" transform="translate(92,45)"/>
<path d="M0 0 C6.44897774 0.53741481 12.32541176 2.32541176 17 7 C16.63723355 9.82957829 15.90305236 12.29084291 15 15 C13.15234375 15.94921875 13.15234375 15.94921875 10.9375 16.6875 C10.20402344 16.93886719 9.47054687 17.19023438 8.71484375 17.44921875 C8.14894531 17.63097656 7.58304688 17.81273438 7 18 C1.71508254 12.01969867 -0.32303758 8.23745824 0 0 Z " fill="#E5F8FA" transform="translate(44,45)"/>
<path d="M0 0 C3.4726126 0.23150751 5.51411094 0.63230017 8.3125 2.75 C10.16892978 5.2252397 10.66142425 6.95281822 11 10 C6.57304895 13.89035092 2.06645749 16.80426867 -3.9375 17.1875 C-4.9584375 17.0946875 -4.9584375 17.0946875 -6 17 C-6.69751232 10.44338418 -4.56156319 6.44160146 -1 1 C-0.67 0.67 -0.34 0.34 0 0 Z " fill="#ECF8F9" transform="translate(50,77)"/>
<path d="M0 0 C2 3 2 3 2 6 C1.01 6.66 0.02 7.32 -1 8 C-1.79798218 10.41607417 -1.79798218 10.41607417 -2.1875 13.125 C-2.34605469 14.03507812 -2.50460938 14.94515625 -2.66796875 15.8828125 C-2.77753906 16.58148438 -2.88710937 17.28015625 -3 18 C-7.82360189 18.19294408 -11.49646738 17.75747614 -16 16 C-16 14.35 -16 12.7 -16 11 C-12.7 11 -9.4 11 -6 11 C-4.68 8.03 -3.36 5.06 -2 2 C-1.34 2 -0.68 2 0 2 C0 1.34 0 0.68 0 0 Z " fill="#0379A0" transform="translate(74,52)"/>
<path d="M0 0 C3.76687864 1.88343932 4.79421646 2.69132469 7 6 C6.67 6.66 6.34 7.32 6 8 C4.01178687 8.39764263 2.00875442 8.72428861 0 9 C-1.33737094 9.31674575 -2.67288808 9.64270064 -4 10 C-4.99 8.68 -5.98 7.36 -7 6 C-4.69 4.02 -2.38 2.04 0 0 Z " fill="#089AC1" transform="translate(92,70)"/>
<path d="M0 0 C2.29633824 3.44450737 2.54016485 5.93812283 3 10 C0.09399739 11.25664978 -1.79604584 12 -5 12 C-4.64989059 3.64989059 -4.64989059 3.64989059 -1.9375 0.9375 C-1.298125 0.628125 -0.65875 0.31875 0 0 Z " fill="#01A7CF" transform="translate(76,57)"/>
<path d="M0 0 C0.11928251 10.83766816 0.11928251 10.83766816 -2.625 13.6875 C-4.5625 14.75 -4.5625 14.75 -8 16 C-6.84826645 13.53199953 -5.95216435 11.95216435 -4 10 C-4 8.68 -4 7.36 -4 6 C-6.97 5.505 -6.97 5.505 -10 5 C-6.99385784 1.69324363 -4.54252119 0 0 0 Z " fill="#0A93B0" transform="translate(34,36)"/>
<path d="M0 0 C3.11198065 1.49836105 6.0534615 3.19933758 9 5 C7.25 8.875 7.25 8.875 5 10 C5 9.01 5 8.02 5 7 C3.72125 6.979375 2.4425 6.95875 1.125 6.9375 C0.40570313 6.92589844 -0.31359375 6.91429688 -1.0546875 6.90234375 C-3.08185404 6.87350758 -3.08185404 6.87350758 -5 8 C-3.8141763 4.62496331 -2.72426311 2.35277269 0 0 Z " fill="#078EA6" transform="translate(42,70)"/>
<path d="M0 0 C0.66 0.33 1.32 0.66 2 1 C1.65066406 1.73605469 1.30132812 2.47210938 0.94140625 3.23046875 C0.48636719 4.20628906 0.03132812 5.18210937 -0.4375 6.1875 C-0.88996094 7.15042969 -1.34242187 8.11335938 -1.80859375 9.10546875 C-5.42524093 17.89214271 -4.42760154 27.02654429 -2 36 C-2.66 36 -3.32 36 -4 36 C-4 34.68 -4 33.36 -4 32 C-4.66 32 -5.32 32 -6 32 C-6 25.07 -6 18.14 -6 11 C-5.34 11 -4.68 11 -4 11 C-4.04125 10.2575 -4.0825 9.515 -4.125 8.75 C-3.99601866 5.91241048 -3.42948778 4.41226062 -2 2 C-1.34 2 -0.68 2 0 2 C0 1.34 0 0.68 0 0 Z " fill="#CDF8FD" transform="translate(13,48)"/>
<path d="M0 0 C1.07507813 0.00128906 2.15015625 0.00257812 3.2578125 0.00390625 C11.88196474 0.10068601 11.88196474 0.10068601 15.75 2.375 C15.75 3.035 15.75 3.695 15.75 4.375 C14.574375 4.045 13.39875 3.715 12.1875 3.375 C0.42492191 0.84123711 -9.5878951 1.83506475 -20.25 7.375 C-21.24 7.87 -21.24 7.87 -22.25 8.375 C-20.51277437 4.28317869 -18.68496333 2.97590789 -14.72851562 1.15136719 C-9.89937618 -0.36130651 -5.01325567 -0.11587817 0 0 Z " fill="#CFFEFD" transform="translate(68.25,8.625)"/>
<path d="M0 0 C0.25523438 0.63421875 0.51046875 1.2684375 0.7734375 1.921875 C1.94462512 4.41925542 1.94462512 4.41925542 5.625 5.25 C6.73875 5.4975 7.8525 5.745 9 6 C9 7.65 9 9.3 9 11 C7.52031676 10.85950482 6.04125484 10.71245174 4.5625 10.5625 C3.73878906 10.48128906 2.91507813 10.40007812 2.06640625 10.31640625 C0 10 0 10 -1 9 C-0.91062197 7.47480724 -0.75462854 5.95318071 -0.5625 4.4375 C-0.46066406 3.61121094 -0.35882813 2.78492187 -0.25390625 1.93359375 C-0.17011719 1.29550781 -0.08632813 0.65742187 0 0 Z " fill="#0CA2C8" transform="translate(34,83)"/>
<path d="M0 0 C0.33 0.66 0.66 1.32 1 2 C0.525625 2.9075 0.05125 3.815 -0.4375 4.75 C-3.03780314 10.48029766 -2.69158999 16.86213887 -2 23 C-0.93704676 25.71053076 0.31103716 27.60276242 2 30 C1.67 30.66 1.34 31.32 1 32 C0.18357746 30.73168307 -0.62799105 29.46024069 -1.4375 28.1875 C-1.88996094 27.47980469 -2.34242187 26.77210937 -2.80859375 26.04296875 C-5.74345931 21.01039601 -5.69040526 15.65544737 -5 10 C-3.65528919 6.45485333 -1.96630822 3.23738604 0 0 Z " fill="#C7F8FD" transform="translate(24,54)"/>
<path d="M0 0 C1.98 0.66 3.96 1.32 6 2 C1.91620112 8.48603352 1.91620112 8.48603352 -1.5625 10.4375 C-6.7078015 11.27945843 -11.79940559 11.15147362 -17 11 C-17.33 10.34 -17.66 9.68 -18 9 C-17.28714844 9.02320312 -16.57429688 9.04640625 -15.83984375 9.0703125 C-10.11639606 9.17815674 -5.40161186 8.92057311 0 7 C0 4.69 0 2.38 0 0 Z " fill="#0BCFD0" transform="translate(78,60)"/>
<path d="M0 0 C3.3 0.33 6.6 0.66 10 1 C10 2.65 10 4.3 10 6 C2.25 6.125 2.25 6.125 0 5 C0 3.35 0 1.7 0 0 Z " fill="#00458A" transform="translate(58,63)"/>
<path d="M0 0 C2.97 0.33 5.94 0.66 9 1 C9.125 7.625 9.125 7.625 8 11 C5.69 11 3.38 11 1 11 C1.639375 10.2575 2.27875 9.515 2.9375 8.75 C4.78333407 6.2888879 5.56069174 4.96533074 6 2 C4.35 2 2.7 2 1 2 C0.67 1.34 0.34 0.68 0 0 Z " fill="#0449A1" transform="translate(83,93)"/>
<path d="M0 0 C1.65 0 3.3 0 5 0 C5 3.61029169 4.03907418 6.55806676 3 10 C1.68 10 0.36 10 -1 10 C-1.125 2.25 -1.125 2.25 0 0 Z " fill="#0587A0" transform="translate(45,35)"/>
<path d="M0 0 C2.64 0 5.28 0 8 0 C9.0625 1.875 9.0625 1.875 10 4 C9.67 4.66 9.34 5.32 9 6 C4.545 5.01 4.545 5.01 0 4 C0 2.68 0 1.36 0 0 Z " fill="#00AC9C" transform="translate(93,46)"/>
<path d="M0 0 C0.66 0.33 1.32 0.66 2 1 C1.67 3.31 1.34 5.62 1 8 C2.65 8.33 4.3 8.66 6 9 C3.02881405 11.53101025 0.81583379 12.34820749 -3 13 C-2.88610125 11.20759337 -2.75852313 9.41605165 -2.625 7.625 C-2.55539063 6.62726563 -2.48578125 5.62953125 -2.4140625 4.6015625 C-2 2 -2 2 0 0 Z " fill="#0561BC" transform="translate(105,90)"/>
<path d="M0 0 C0.47970123 1.74985354 0.95873924 3.49988891 1.4375 5.25 C1.83775391 6.71179687 1.83775391 6.71179687 2.24609375 8.203125 C2.85544584 10.46372653 3.44238255 12.72622009 4 15 C3.34 15 2.68 15 2 15 C2 14.01 2 13.02 2 12 C1.34 12 0.68 12 0 12 C-0.309375 11.05125 -0.61875 10.1025 -0.9375 9.125 C-1.87394742 6.13919592 -1.87394742 6.13919592 -3 4 C-4.65 4.66 -6.3 5.32 -8 6 C-3.38461538 0 -3.38461538 0 0 0 Z " fill="#C8FBFC" transform="translate(33,48)"/>
<path d="M0 0 C0 0.66 0 1.32 0 2 C1.98 2 3.96 2 6 2 C6 2.66 6 3.32 6 4 C6.66 4.33 7.32 4.66 8 5 C6.89205078 4.76603516 6.89205078 4.76603516 5.76171875 4.52734375 C-1.44289813 3.14500938 -7.74422156 2.9430559 -15 4 C-15 3.34 -15 2.68 -15 2 C-9.87080814 -0.10428384 -5.4389165 -0.21755666 0 0 Z " fill="#085EB4" transform="translate(97,43)"/>
<path d="M0 0 C0.99 0.33 1.98 0.66 3 1 C1.89932004 1.81721717 0.79430269 2.62859451 -0.3125 3.4375 C-0.92738281 3.88996094 -1.54226562 4.34242187 -2.17578125 4.80859375 C-6.00703328 7.31080332 -9.54492296 7.16429647 -14 7.1875 C-15.2375 7.20167969 -16.475 7.21585937 -17.75 7.23046875 C-21 7 -21 7 -24 5 C-22.92878906 5.01160156 -21.85757813 5.02320312 -20.75390625 5.03515625 C-19.35677257 5.04453299 -17.95963701 5.05363331 -16.5625 5.0625 C-15.85544922 5.07087891 -15.14839844 5.07925781 -14.41992188 5.08789062 C-12.61306441 5.09653588 -10.80612397 5.05220011 -9 5 C-8.67 4.67 -8.34 4.34 -8 4 C-6.33382885 3.95936168 -4.66611905 3.957279 -3 4 C-3 3.34 -3 2.68 -3 2 C-2.01 2 -1.02 2 0 2 C0 1.34 0 0.68 0 0 Z " fill="#C8FAFD" transform="translate(82,111)"/>
<path d="M0 0 C5.94 0.99 5.94 0.99 12 2 C12 2.33 12 2.66 12 3 C10.35 3 8.7 3 7 3 C6.34 4.32 5.68 5.64 5 7 C4.01 7 3.02 7 2 7 C0.5393715 4.35261084 0 3.10551666 0 0 Z " fill="#034794" transform="translate(59,79)"/>
<path d="M0 0 C0.53625 0.226875 1.0725 0.45375 1.625 0.6875 C-1.345 3.1625 -1.345 3.1625 -4.375 5.6875 C-4.21 6.203125 -4.045 6.71875 -3.875 7.25 C-3.22451 10.42113876 -3.3129266 13.45968334 -3.375 16.6875 C-3.705 16.6875 -4.035 16.6875 -4.375 16.6875 C-4.55675781 15.79998047 -4.55675781 15.79998047 -4.7421875 14.89453125 C-5.64244643 10.64946415 -6.57956621 6.66310339 -8.375 2.6875 C-2.95961538 -0.38942308 -2.95961538 -0.38942308 0 0 Z " fill="#14AFD6" transform="translate(96.375,77.3125)"/>
<path d="M0 0 C3.43015461 2.80649013 3.4009765 4.20292951 5 9 C0.38 9 -4.24 9 -9 9 C-8.67 8.01 -8.34 7.02 -8 6 C-5.69 6 -3.38 6 -1 6 C-0.67 4.02 -0.34 2.04 0 0 Z " fill="#19B8B7" transform="translate(97,26)"/>
<path d="M0 0 C0.99 0.33 1.98 0.66 3 1 C4.15842333 3.49743738 4.9719303 6.04108901 5.83984375 8.65234375 C7.18800256 11.38043616 8.19309127 11.97451142 11 13 C7.25 16 7.25 16 5 16 C4.72285156 15.09636719 4.44570312 14.19273438 4.16015625 13.26171875 C3.79792969 12.08222656 3.43570313 10.90273437 3.0625 9.6875 C2.70285156 8.51574219 2.34320313 7.34398438 1.97265625 6.13671875 C1.33627721 4.08446023 0.67946621 2.03839863 0 0 Z " fill="#D0F9FE" transform="translate(98,75)"/>
<path d="M0 0 C-7.26 0 -14.52 0 -22 0 C-21.67 -0.66 -21.34 -1.32 -21 -2 C-13.57480707 -3.57982828 -6.22467417 -4.66850563 0 0 Z " fill="#0B69B8" transform="translate(104,37)"/>
<path d="M0 0 C3.0414541 6.08290821 2.76796826 12.16811704 1 18.6875 C0.67 19.450625 0.34 20.21375 0 21 C-0.33 21 -0.66 21 -1 21 C-0.67 14.07 -0.34 7.14 0 0 Z " fill="#2A6AC1" transform="translate(126,60)"/>
<path d="M0 0 C0.66 0.33 1.32 0.66 2 1 C0.90033225 2.29549899 -0.20491801 3.58626071 -1.3125 4.875 C-1.92738281 5.59429688 -2.54226562 6.31359375 -3.17578125 7.0546875 C-5 9 -5 9 -8 11 C-8.33 11.99 -8.66 12.98 -9 14 C-9.66 14 -10.32 14 -11 14 C-9.59491996 9.52929078 -7.40653888 7.16321468 -4 4 C-3.236875 3.236875 -2.47375 2.47375 -1.6875 1.6875 C-1.130625 1.130625 -0.57375 0.57375 0 0 Z " fill="#23D3C5" transform="translate(48,15)"/>
<path d="M0 0 C1.32 0.66 2.64 1.32 4 2 C4 2.66 4 3.32 4 4 C2.88625 4.45375 1.7725 4.9075 0.625 5.375 C-2.96199008 6.72465986 -2.96199008 6.72465986 -5 9 C-5.66 8.01 -6.32 7.02 -7 6 C-4.69 4.02 -2.38 2.04 0 0 Z " fill="#058CA6" transform="translate(92,70)"/>
<path d="M0 0 C0.33 0.99 0.66 1.98 1 3 C-3.42695105 6.89035092 -7.93354251 9.80426867 -13.9375 10.1875 C-14.618125 10.125625 -15.29875 10.06375 -16 10 C-13.5546615 7.03472242 -11.55397653 6.44417786 -7.8125 5.8125 C-6.91144531 5.65394531 -6.01039062 5.49539062 -5.08203125 5.33203125 C-4.05142578 5.16767578 -4.05142578 5.16767578 -3 5 C-3 4.34 -3 3.68 -3 3 C-2.34 3 -1.68 3 -1 3 C-0.67 2.01 -0.34 1.02 0 0 Z " fill="#CBF6FC" transform="translate(60,84)"/>
<path d="M0 0 C0.33 0 0.66 0 1 0 C1 1.65 1 3.3 1 5 C5.455 5.99 5.455 5.99 10 7 C10.33 6.34 10.66 5.68 11 5 C10.67 6.98 10.34 8.96 10 11 C9.67 10.01 9.34 9.02 9 8 C8.236875 8.20625 7.47375 8.4125 6.6875 8.625 C4 9 4 9 1 7 C1 7.66 1 8.32 1 9 C0.34 9 -0.32 9 -1 9 C-0.67 6.03 -0.34 3.06 0 0 Z " fill="#18BDB1" transform="translate(92,45)"/>
<path d="M0 0 C0.99 0.66 1.98 1.32 3 2 C2.41476563 2.23460937 1.82953125 2.46921875 1.2265625 2.7109375 C-1.50258857 4.29097233 -2.78784861 6.07564896 -4.625 8.625 C-5.70354973 10.11801426 -6.81916951 11.58649355 -8 13 C-8.66 13 -9.32 13 -10 13 C-8.65515286 8.95838045 -6.9494838 6.61321846 -3.875 3.6875 C-3.15054687 2.99011719 -2.42609375 2.29273438 -1.6796875 1.57421875 C-1.12539063 1.05472656 -0.57109375 0.53523438 0 0 Z " fill="#19A2C6" transform="translate(23,40)"/>
<path d="M0 0 C1.27875 0.28875 2.5575 0.5775 3.875 0.875 C4.95394531 1.11863281 4.95394531 1.11863281 6.0546875 1.3671875 C8 2 8 2 10 4 C7.69 3.67 5.38 3.34 3 3 C2.54625 3.78375 2.0925 4.5675 1.625 5.375 C0 8 0 8 -2 10 C-2.17942163 6.05272412 -2.09350689 3.4019487 0 0 Z " fill="#109FC5" transform="translate(50,35)"/>
<path d="M0 0 C0.8125 1.6875 0.8125 1.6875 1 4 C-1.4375 6.75 -1.4375 6.75 -4 9 C-6.475 8.01 -6.475 8.01 -9 7 C-8.443125 6.773125 -7.88625 6.54625 -7.3125 6.3125 C-4.36753316 4.64103234 -2.31843456 2.44723648 0 0 Z " fill="#0C54B3" transform="translate(88,95)"/>
<path d="M0 0 C1.2077558 3.62326739 0.54311128 4.64146369 -1 8 C-1.33 7.01 -1.66 6.02 -2 5 C-2.66 5 -3.32 5 -4 5 C-4.33 4.34 -4.66 3.68 -5 3 C-8.02934491 2.34227572 -8.02934491 2.34227572 -11 2 C-11 1.67 -11 1.34 -11 1 C-5.555 0.505 -5.555 0.505 0 0 Z " fill="#0982AB" transform="translate(76,79)"/>
<path d="M0 0 C1.04005702 3.38018531 1.08004482 6.4780279 1 10 C2.32 10.66 3.64 11.32 5 12 C2.36 11.67 -0.28 11.34 -3 11 C-2.44894091 7.0507432 -1.61064629 3.65079826 0 0 Z " fill="#0B58B5" transform="translate(61,52)"/>
<path d="M0 0 C2.58361518 -0.05407567 5.16609255 -0.093707 7.75 -0.125 C8.84441406 -0.15013672 8.84441406 -0.15013672 9.9609375 -0.17578125 C13.8044624 -0.21072239 16.74606772 -0.17499684 20 2 C20 2.66 20 3.32 20 4 C18.741875 3.690625 17.48375 3.38125 16.1875 3.0625 C10.82934823 1.85947548 5.4695168 1.38848904 0 1 C0 0.67 0 0.34 0 0 Z " fill="#C2FCF9" transform="translate(64,9)"/>
<path d="M0 0 C2.3125 1 2.3125 1 4 2 C3.67 3.32 3.34 4.64 3 6 C2.67 5.01 2.34 4.02 2 3 C0.72125 2.979375 -0.5575 2.95875 -1.875 2.9375 C-2.59429687 2.92589844 -3.31359375 2.91429688 -4.0546875 2.90234375 C-6.08185404 2.87350758 -6.08185404 2.87350758 -8 4 C-7.67 3.01 -7.34 2.02 -7 1 C-4.46130539 -0.26934731 -2.82098771 -0.20149912 0 0 Z " fill="#099EC5" transform="translate(45,74)"/>
<path d="M0 0 C0.33 1.32 0.66 2.64 1 4 C-3.455 7.96 -3.455 7.96 -8 12 C-8.66 11.67 -9.32 11.34 -10 11 C-9.278125 10.484375 -8.55625 9.96875 -7.8125 9.4375 C-4.49943158 6.56617403 -2.44284263 3.6293662 0 0 Z " fill="#CDFAFD" transform="translate(98,112)"/>
<path d="M0 0 C3.3 0.33 6.6 0.66 10 1 C10 1.99 10 2.98 10 4 C7.03 3.67 4.06 3.34 1 3 C0.67 2.01 0.34 1.02 0 0 Z " fill="#0090B6" transform="translate(33,90)"/>
<path d="M0 0 C-0.33 1.65 -0.66 3.3 -1 5 C-3.31 4.67 -5.62 4.34 -8 4 C-5.29881977 1.17603885 -4.05589853 0 0 0 Z " fill="#0A768D" transform="translate(34,36)"/>
<path d="M0 0 C4.31392226 0.4793247 6.16569547 1.7457985 9 5 C8.34 5 7.68 5 7 5 C6.67 6.32 6.34 7.64 6 9 C5.34 6.69 4.68 4.38 4 2 C2.68 1.67 1.36 1.34 0 1 C0 0.67 0 0.34 0 0 Z " fill="#119CBF" transform="translate(30,101)"/>
<path d="M0 0 C1.1200071 3.36002129 0.8208325 4.63458676 0 8 C-0.185625 8.763125 -0.37125 9.52625 -0.5625 10.3125 C-0.706875 10.869375 -0.85125 11.42625 -1 12 C-2.5625 10.25 -2.5625 10.25 -4 8 C-3.78884685 4.62154967 -2.10517651 2.56282357 0 0 Z " fill="#CAF8FA" transform="translate(98,63)"/>
<path d="M0 0 C0.33 0.99 0.66 1.98 1 3 C-1.64 5.31 -4.28 7.62 -7 10 C-7.66 9.34 -8.32 8.68 -9 8 C-8.43410156 7.50628906 -7.86820312 7.01257813 -7.28515625 6.50390625 C-6.55167969 5.86324219 -5.81820312 5.22257812 -5.0625 4.5625 C-4.33160156 3.92441406 -3.60070312 3.28632812 -2.84765625 2.62890625 C-1.87860647 1.77458541 -0.91348825 0.91348825 0 0 Z " fill="#D1E9FB" transform="translate(120,91)"/>
<path d="M0 0 C1.32 1.32 2.64 2.64 4 4 C2.70700306 6.88437779 1.34058637 8.87219421 -1 11 C-1 9.68 -1 8.36 -1 7 C-0.34 7 0.32 7 1 7 C0.67 4.69 0.34 2.38 0 0 Z " fill="#CBF9FB" transform="translate(38,65)"/>
<path d="M0 0 C1.98 0.66 3.96 1.32 6 2 C4.6875 4 4.6875 4 3 6 C2.01 6 1.02 6 0 6 C0 4.02 0 2.04 0 0 Z " fill="#0FB9E0" transform="translate(78,60)"/>
<path d="M0 0 C0.33 0.99 0.66 1.98 1 3 C0.0409375 3.8353125 0.0409375 3.8353125 -0.9375 4.6875 C-3.19680987 7.22066561 -3.63149047 8.68341424 -4 12 C-4.33 12 -4.66 12 -5 12 C-4.64989059 3.64989059 -4.64989059 3.64989059 -1.9375 0.9375 C-1.298125 0.628125 -0.65875 0.31875 0 0 Z " fill="#0992B6" transform="translate(76,57)"/>
<path d="M0 0 C3.3 0.33 6.6 0.66 10 1 C10 1.99 10 2.98 10 4 C5.38308839 3.47535095 3.90012114 2.92509086 0 0 Z " fill="#0048A6" transform="translate(58,63)"/>
<path d="M0 0 C1.125 3.75 1.125 3.75 0 6 C-2.475 5.01 -2.475 5.01 -5 4 C-5 3.34 -5 2.68 -5 2 C-3.35 1.34 -1.7 0.68 0 0 Z " fill="#12B6E0" transform="translate(57,60)"/>
<path d="M0 0 C1.98 0.495 1.98 0.495 4 1 C3.34 1.66 2.68 2.32 2 3 C1.60235737 4.98821313 1.26224651 6.98944339 1 9 C0.34 8.67 -0.32 8.34 -1 8 C-1.125 2.25 -1.125 2.25 0 0 Z " fill="#0390B5" transform="translate(47,36)"/>
<path d="M0 0 C1.70884005 1.62339805 3.37446717 3.29319053 5 5 C5 5.66 5 6.32 5 7 C4.34 7 3.68 7 3 7 C3 6.01 3 5.02 3 4 C0.69 3.67 -1.62 3.34 -4 3 C-2.68 2.01 -1.36 1.02 0 0 Z " fill="#C3F9FB" transform="translate(84,76)"/>
<path d="M0 0 C2.64 0 5.28 0 8 0 C8.66 1.32 9.32 2.64 10 4 C9.34 4.66 8.68 5.32 8 6 C8 5.01 8 4.02 8 3 C5.36 2.34 2.72 1.68 0 1 C0 0.67 0 0.34 0 0 Z " fill="#068C91" transform="translate(93,46)"/>
<path d="M0 0 C2.31 0.33 4.62 0.66 7 1 C4.06171403 3.50298434 1.82097239 4.46930939 -2 5 C-1.67 4.34 -1.34 3.68 -1 3 C-0.34 3 0.32 3 1 3 C0.67 2.01 0.34 1.02 0 0 Z " fill="#0C51A8" transform="translate(104,98)"/>
<path d="M0 0 C0.33 0 0.66 0 1 0 C1.25 6.625 1.25 6.625 -1 10 C-1.66 10 -2.32 10 -3 10 C-2.01 6.7 -1.02 3.4 0 0 Z " fill="#C8FBF9" transform="translate(102,53)"/>
<path d="M0 0 C0.33 1.32 0.66 2.64 1 4 C-0.65 5.32 -2.3 6.64 -4 8 C-3.34 6.02 -2.68 4.04 -2 2 C-1.34 2 -0.68 2 0 2 C0 1.34 0 0.68 0 0 Z " fill="#03619D" transform="translate(74,52)"/>
</svg>
