<?xml version="1.0" encoding="UTF-8"?>
<svg version="1.1" xmlns="http://www.w3.org/2000/svg" width="137" height="122">
<path d="M0 0 C45.21 0 90.42 0 137 0 C137 40.26 137 80.52 137 122 C91.79 122 46.58 122 0 122 C0 81.74 0 41.48 0 0 Z " fill="#F4F8F8" transform="translate(0,0)"/>
<path d="M0 0 C2.15350949 1.62821735 3.79611444 3.09072984 5.6171875 5.03125 C6.11920685 5.54175903 6.6212262 6.05226807 7.13845825 6.57824707 C8.73198805 8.20525059 10.30334778 9.85188122 11.875 11.5 C12.95432927 12.60943654 14.03504466 13.71752639 15.1171875 14.82421875 C17.7611048 17.53413951 20.38533709 20.26185458 23 23 C26.9541327 19.73875221 30.64988694 16.40267458 34.19140625 12.6953125 C35.26745117 11.57382812 35.26745117 11.57382812 36.36523438 10.4296875 C37.84367219 8.8789705 39.31230073 7.3188482 40.77148438 5.75 C46.20587242 0.13462873 46.20587242 0.13462873 50.41015625 -0.578125 C53 -0 53 -0 54.875 1.125 C56.55986079 3.93310132 56.38499948 5.76414777 56 9 C54.37178265 11.15350949 52.90927016 12.79611444 50.96875 14.6171875 C50.45824097 15.11920685 49.94773193 15.6212262 49.42175293 16.13845825 C47.79474941 17.73198805 46.14811878 19.30334778 44.5 20.875 C43.39056346 21.95432927 42.28247361 23.03504466 41.17578125 24.1171875 C38.46586049 26.7611048 35.73814542 29.38533709 33 32 C33.9080162 33.13199353 34.82683826 34.25532363 35.75 35.375 C36.26046875 36.00148437 36.7709375 36.62796875 37.296875 37.2734375 C39.08199481 39.08312318 40.67949644 40.00117455 43 41 C43.99797607 39.94703735 43.99797607 39.94703735 45.01611328 38.87280273 C47.49177307 36.27033892 49.99061758 33.6911993 52.49707031 31.1184082 C53.57807033 30.00222867 54.65270196 28.87984434 55.72070312 27.7512207 C57.25835038 26.12854555 58.8176236 24.52966318 60.3828125 22.93359375 C60.85494171 22.42533554 61.32707092 21.91707733 61.81350708 21.39341736 C63.20751953 19.99780273 63.20751953 19.99780273 66 18 C69.77211574 18.07793156 71.31853712 18.31853712 74 21 C74.43662455 24.48819836 74.43047887 26.34037734 72.48828125 29.31640625 C71.77027344 30.05761719 71.05226563 30.79882812 70.3125 31.5625 C69.50554687 32.40683594 68.69859375 33.25117187 67.8671875 34.12109375 C66.91308522 35.08234669 65.95721647 36.04184814 65 37 C64.43829102 37.5686377 63.87658203 38.13727539 63.29785156 38.72314453 C59.55801634 42.50888608 55.78910434 46.26360345 52 50 C53.47105157 53.46069967 55.38606598 55.53853802 58.1328125 58.08203125 C58.93847656 58.84966797 59.74414062 59.61730469 60.57421875 60.40820312 C62.2730575 62.00948222 63.98143297 63.60070424 65.69921875 65.18164062 C72.556263 71.76902583 72.556263 71.76902583 72.6796875 75.94921875 C72 79 72 79 70 81 C65.92906086 81.49160432 63.8077575 81.58267623 60.43286133 79.14819336 C59.6570874 78.30393799 58.88131348 77.45968262 58.08203125 76.58984375 C57.22029297 75.68298828 56.35855469 74.77613281 55.47070312 73.84179688 C54.59349609 72.88337891 53.71628906 71.92496094 52.8125 70.9375 C51.05983605 69.03994577 49.29602572 67.15260651 47.51953125 65.27734375 C46.74714111 64.43421631 45.97475098 63.59108887 45.17895508 62.72241211 C43.17498688 60.74270325 43.17498688 60.74270325 40.81030273 61.14453125 C38.68011215 62.15116481 37.67722074 63.19918403 36.25 65.0625 C35.13625 66.5165625 35.13625 66.5165625 34 68 C35.43998175 71.34263246 37.22374251 73.39392668 39.87890625 75.86328125 C40.63494141 76.58580078 41.39097656 77.30832031 42.16992188 78.05273438 C43.76120951 79.55568931 45.36017384 81.0505589 46.96679688 82.53710938 C53.41659305 88.74455625 53.41659305 88.74455625 54.15234375 92.85546875 C54 96 54 96 52 99 C47.90443723 99.57053217 45.79962316 99.55806646 42.36938477 97.1640625 C41.56815186 96.32617188 40.76691895 95.48828125 39.94140625 94.625 C39.06162109 93.72265625 38.18183594 92.8203125 37.27539062 91.890625 C36.38013672 90.93671875 35.48488281 89.9828125 34.5625 89 C33.63250744 88.03486755 32.70088094 87.07130673 31.76757812 86.109375 C29.49516903 83.75454692 27.24067469 81.38497858 25 79 C21.65415036 80.45042909 19.49945964 82.27738825 16.9609375 84.87890625 C16.21585938 85.63494141 15.47078125 86.39097656 14.703125 87.16992188 C13.55070312 88.35424805 13.55070312 88.35424805 12.375 89.5625 C10.84336831 91.12847891 9.30961805 92.69238939 7.7734375 94.25390625 C6.75902588 95.29526733 6.75902588 95.29526733 5.72412109 96.35766602 C3.38173049 98.58894067 2.3278949 98.97209405 -0.9375 99.25 C-4 99 -4 99 -5.875 97.8125 C-7.4352588 95.29874972 -7.38755236 93.93232065 -7 91 C-5.07226563 88.50463867 -5.07226563 88.50463867 -2.40625 85.91796875 C-1.94013306 85.45892654 -1.47401611 84.99988434 -0.99377441 84.52693176 C0.49280094 83.06827091 1.99582308 81.62798135 3.5 80.1875 C4.51285511 79.19973159 5.52458808 78.21081114 6.53515625 77.22070312 C9.01057245 74.80031517 11.50104169 72.39610098 14 70 C12.23770311 66.22480438 10.23124812 63.69270677 7 61 C3.06402384 61.20229995 1.26865649 63.47249769 -1.30078125 66.25390625 C-2.11353516 67.10791016 -2.92628906 67.96191406 -3.76367188 68.84179688 C-5.4593794 70.65185097 -7.14694806 72.46956514 -8.82617188 74.29492188 C-15.81528019 81.59294105 -15.81528019 81.59294105 -19.98046875 81.71484375 C-23 81 -23 81 -25 79 C-25.49160432 74.92906086 -25.58267623 72.8077575 -23.14819336 69.43286133 C-22.30393799 68.6570874 -21.45968262 67.88131348 -20.58984375 67.08203125 C-19.22956055 65.78942383 -19.22956055 65.78942383 -17.84179688 64.47070312 C-16.88337891 63.59349609 -15.92496094 62.71628906 -14.9375 61.8125 C-13.03994577 60.05983605 -11.15260651 58.29602572 -9.27734375 56.51953125 C-8.43421631 55.74714111 -7.59108887 54.97475098 -6.72241211 54.17895508 C-4.80895477 52.20315665 -4.80895477 52.20315665 -4.93945312 50.01586914 C-6.42060908 47.20051354 -8.37232633 45.40271617 -10.69140625 43.2265625 C-11.63564453 42.3190625 -12.57988281 41.4115625 -13.55273438 40.4765625 C-15.0571561 39.04658791 -16.5658861 37.62183739 -18.08276367 36.20507812 C-19.54858918 34.83007706 -20.99528495 33.43477219 -22.44140625 32.0390625 C-23.31482666 31.21615723 -24.18824707 30.39325195 -25.08813477 29.54541016 C-27.42784151 26.43038238 -27.53024557 24.81153379 -27 21 C-25.3125 19.0625 -25.3125 19.0625 -23 18 C-17.01944976 18.65382221 -14.18452934 21.96376677 -10 26 C-9.42878418 26.55075195 -8.85756836 27.10150391 -8.26904297 27.66894531 C-6.33684619 29.54099395 -4.41628516 31.42417222 -2.5 33.3125 C-1.86392822 33.93535889 -1.22785645 34.55821777 -0.57250977 35.19995117 C0.01860596 35.7901001 0.60972168 36.38024902 1.21875 36.98828125 C1.75435547 37.51977783 2.28996094 38.05127441 2.84179688 38.59887695 C4 40 4 40 4 42 C5.29549899 40.90033225 6.58626071 39.79508199 7.875 38.6875 C8.59429687 38.07261719 9.31359375 37.45773438 10.0546875 36.82421875 C12.19179331 34.9587676 12.19179331 34.9587676 14 32 C13.00818726 31.0553186 13.00818726 31.0553186 11.99633789 30.09155273 C9.53707546 27.73489486 7.09217951 25.36504123 4.65551758 22.98510742 C3.60067597 21.96033486 2.54049811 20.94102427 1.47485352 19.92749023 C-0.0612795 18.464609 -1.57677795 16.98277733 -3.08984375 15.49609375 C-4.00628662 14.61107178 -4.92272949 13.7260498 -5.86694336 12.81420898 C-8.41315547 9.45491094 -8.83862886 7.17419573 -9 3 C-6.9240374 -0.78557885 -3.97950575 -0.46923877 0 0 Z " fill="#0BABD5" transform="translate(42,14)"/>
<path d="M0 0 C2.81005859 0.90161133 2.81005859 0.90161133 4.81005859 2.90161133 C5.24668315 6.38980969 5.24053746 8.24198867 3.29833984 11.21801758 C2.58033203 11.95922852 1.86232422 12.70043945 1.12255859 13.46411133 C0.31560547 14.30844727 -0.49134766 15.1527832 -1.32275391 16.02270508 C-2.27685619 16.98395802 -3.23272493 17.94345946 -4.18994141 18.90161133 C-5.03250488 19.75456787 -5.03250488 19.75456787 -5.89208984 20.62475586 C-9.63192507 24.41049741 -13.40083707 28.16521478 -17.18994141 31.90161133 C-15.71888983 35.362311 -13.80387543 37.44014935 -11.05712891 39.98364258 C-10.25146484 40.7512793 -9.44580078 41.51891602 -8.61572266 42.30981445 C-6.91688391 43.91109355 -5.20850844 45.50231557 -3.49072266 47.08325195 C3.36632159 53.67063716 3.36632159 53.67063716 3.48974609 57.85083008 C2.81005859 60.90161133 2.81005859 60.90161133 0.81005859 62.90161133 C-3.26088055 63.39321565 -5.38218391 63.48428756 -8.75708008 61.04980469 C-9.532854 60.20554932 -10.30862793 59.36129395 -11.10791016 58.49145508 C-11.96964844 57.58459961 -12.83138672 56.67774414 -13.71923828 55.7434082 C-14.59644531 54.78499023 -15.47365234 53.82657227 -16.37744141 52.83911133 C-18.13010536 50.9415571 -19.89391569 49.05421783 -21.67041016 47.17895508 C-22.44280029 46.33582764 -23.21519043 45.4927002 -24.01098633 44.62402344 C-26.01495452 42.64431458 -26.01495452 42.64431458 -28.37963867 43.04614258 C-30.50982926 44.05277613 -31.51272067 45.10079536 -32.93994141 46.96411133 C-34.05369141 48.41817383 -34.05369141 48.41817383 -35.18994141 49.90161133 C-33.74995966 53.24424379 -31.96619889 55.29553801 -29.31103516 57.76489258 C-28.555 58.48741211 -27.79896484 59.20993164 -27.02001953 59.9543457 C-25.42873189 61.45730064 -23.82976756 62.95217023 -22.22314453 64.4387207 C-15.77334836 70.64616758 -15.77334836 70.64616758 -15.03759766 74.75708008 C-15.18994141 77.90161133 -15.18994141 77.90161133 -17.18994141 80.90161133 C-21.28550418 81.4721435 -23.39031825 81.45967779 -26.82055664 79.06567383 C-27.62178955 78.2277832 -28.42302246 77.38989258 -29.24853516 76.52661133 C-30.12832031 75.62426758 -31.00810547 74.72192383 -31.91455078 73.79223633 C-32.80980469 72.83833008 -33.70505859 71.88442383 -34.62744141 70.90161133 C-35.55743396 69.93647888 -36.48906047 68.97291806 -37.42236328 68.01098633 C-39.69477237 65.65615825 -41.94926672 63.28658991 -44.18994141 60.90161133 C-47.53579104 62.35204042 -49.69048177 64.17899958 -52.22900391 66.78051758 C-52.97408203 67.53655273 -53.71916016 68.29258789 -54.48681641 69.0715332 C-55.25509766 69.86108398 -56.02337891 70.65063477 -56.81494141 71.46411133 C-58.34657309 73.03009024 -59.88032336 74.59400072 -61.41650391 76.15551758 C-62.43091553 77.19687866 -62.43091553 77.19687866 -63.46582031 78.25927734 C-65.80821092 80.490552 -66.86204651 80.87370538 -70.12744141 81.15161133 C-73.18994141 80.90161133 -73.18994141 80.90161133 -75.06494141 79.71411133 C-76.6208738 77.20733135 -76.56829535 75.82458097 -76.18994141 72.90161133 C-74.32568359 70.4855957 -74.32568359 70.4855957 -71.73681641 67.99536133 C-70.80740234 67.08657227 -69.87798828 66.1777832 -68.92041016 65.24145508 C-67.92745831 64.29427645 -66.93396373 63.34766648 -65.93994141 62.40161133 C-64.0136169 60.54155799 -62.09409961 58.674685 -60.17431641 56.80786133 C-58.88605957 55.57519531 -58.88605957 55.57519531 -57.57177734 54.31762695 C-55.12115044 51.92540194 -55.12115044 51.92540194 -53.00341797 49.0949707 C-52.4049707 48.37116211 -51.80652344 47.64735352 -51.18994141 46.90161133 C-50.52994141 46.90161133 -49.86994141 46.90161133 -49.18994141 46.90161133 C-48.85994141 45.91161133 -48.52994141 44.92161133 -48.18994141 43.90161133 C-46.51806641 42.25317383 -46.51806641 42.25317383 -44.43994141 40.52661133 C-41.193253 37.77626917 -38.15088961 34.95508916 -35.18994141 31.90161133 C-37.16994141 29.92161133 -39.14994141 27.94161133 -41.18994141 25.90161133 C-40.73911672 24.44093934 -40.27900604 22.98313101 -39.81494141 21.52661133 C-39.55970703 20.71450195 -39.30447266 19.90239258 -39.04150391 19.06567383 C-38.18994141 16.90161133 -38.18994141 16.90161133 -36.18994141 14.90161133 C-33.54994141 17.54161133 -30.90994141 20.18161133 -28.18994141 22.90161133 C-24.23051057 20.92189591 -22.3972163 19.25797014 -19.41650391 16.07739258 C-18.05525391 14.65910156 -18.05525391 14.65910156 -16.66650391 13.2121582 C-15.23426774 11.71175547 -13.80819334 10.20686087 -12.39501953 8.68847656 C-11.0227056 7.2193298 -9.6261107 5.77298254 -8.22900391 4.32739258 C-7.40609863 3.4551001 -6.58319336 2.58280762 -5.73535156 1.68408203 C-3.18994141 -0.09838867 -3.18994141 -0.09838867 0 0 Z " fill="#0C51B7" transform="translate(111.18994140625,32.098388671875)"/>
<path d="M0 0 C2.81005859 0.90161133 2.81005859 0.90161133 4.81005859 2.90161133 C5.24668315 6.38980969 5.24053746 8.24198867 3.29833984 11.21801758 C2.58033203 11.95922852 1.86232422 12.70043945 1.12255859 13.46411133 C0.31560547 14.30844727 -0.49134766 15.1527832 -1.32275391 16.02270508 C-2.27685619 16.98395802 -3.23272493 17.94345946 -4.18994141 18.90161133 C-4.75165039 19.47024902 -5.31335938 20.03888672 -5.89208984 20.62475586 C-9.63192507 24.41049741 -13.40083707 28.16521478 -17.18994141 31.90161133 C-15.71888983 35.362311 -13.80387543 37.44014935 -11.05712891 39.98364258 C-10.25146484 40.7512793 -9.44580078 41.51891602 -8.61572266 42.30981445 C-6.91688391 43.91109355 -5.20850844 45.50231557 -3.49072266 47.08325195 C3.36632159 53.67063716 3.36632159 53.67063716 3.48974609 57.85083008 C2.81005859 60.90161133 2.81005859 60.90161133 0.81005859 62.90161133 C-3.19376071 63.36889043 -5.37398123 63.46341358 -8.74121094 61.14501953 C-9.51062012 60.33895264 -10.2800293 59.53288574 -11.07275391 58.70239258 C-12.35859375 57.38271484 -12.35859375 57.38271484 -13.67041016 56.03637695 C-14.54310547 55.1050293 -15.41580078 54.17368164 -16.31494141 53.21411133 C-17.19537109 52.30209961 -18.07580078 51.39008789 -18.98291016 50.45043945 C-20.62929131 48.74321918 -22.26835757 47.02889101 -23.89746094 45.30517578 C-26.79798233 42.26410729 -29.7262796 39.25268377 -32.81494141 36.40161133 C-34.18994141 34.90161133 -34.18994141 34.90161133 -35.62744141 32.46411133 C-37.21815356 29.85534339 -38.9619858 27.97591483 -41.18994141 25.90161133 C-40.73911672 24.44093934 -40.27900604 22.98313101 -39.81494141 21.52661133 C-39.43208984 20.30844727 -39.43208984 20.30844727 -39.04150391 19.06567383 C-38.18994141 16.90161133 -38.18994141 16.90161133 -36.18994141 14.90161133 C-33.54994141 17.54161133 -30.90994141 20.18161133 -28.18994141 22.90161133 C-24.23051057 20.92189591 -22.3972163 19.25797014 -19.41650391 16.07739258 C-18.50900391 15.13186523 -17.60150391 14.18633789 -16.66650391 13.2121582 C-15.23426774 11.71175547 -13.80819334 10.20686087 -12.39501953 8.68847656 C-11.0227056 7.2193298 -9.6261107 5.77298254 -8.22900391 4.32739258 C-7.40609863 3.4551001 -6.58319336 2.58280762 -5.73535156 1.68408203 C-3.18994141 -0.09838867 -3.18994141 -0.09838867 0 0 Z " fill="#07B0E1" transform="translate(111.18994140625,32.098388671875)"/>
<path d="M0 0 C1.875 1.125 1.875 1.125 3 3 C3.37597656 5.78808594 3.37597656 5.78808594 3 9 C0.95214844 11.63378906 0.95214844 11.63378906 -1.890625 14.265625 C-2.39164734 14.74392761 -2.89266968 15.22223022 -3.40887451 15.71502686 C-5.54123757 17.75000131 -7.70687405 19.74808686 -9.87158203 21.74853516 C-19.44842326 30.32286825 -19.44842326 30.32286825 -24 42 C-22.72226108 45.43813676 -20.66322459 47.51432372 -18 50 C-19.14487739 52.28975477 -20.37431838 53.33988726 -22.3125 55 C-23.20388672 55.7734375 -23.20388672 55.7734375 -24.11328125 56.5625 C-25.99743138 57.99804295 -27.85200199 59.01372277 -30 60 C-30.48210937 59.50628906 -30.96421875 59.01257813 -31.4609375 58.50390625 C-32.09257813 57.86324219 -32.72421875 57.22257812 -33.375 56.5625 C-34.31472656 55.60537109 -34.31472656 55.60537109 -35.2734375 54.62890625 C-36.91723061 52.92117824 -36.91723061 52.92117824 -39 52 C-39 51.34 -39 50.68 -39 50 C-39.639375 49.71125 -40.27875 49.4225 -40.9375 49.125 C-43 48 -43 48 -44 46 C-43.34 45.34 -42.68 44.68 -42 44 C-42.03544922 43.21834473 -42.07089844 42.43668945 -42.10742188 41.63134766 C-41.96396562 38.11732144 -40.81370468 37.26989224 -38.28125 34.8984375 C-37.51425781 34.16109375 -36.74726562 33.42375 -35.95703125 32.6640625 C-35.14621094 31.90867187 -34.33539063 31.15328125 -33.5 30.375 C-31.89973663 28.86886977 -30.30564013 27.35615157 -28.71875 25.8359375 C-28.00654297 25.17126465 -27.29433594 24.5065918 -26.56054688 23.82177734 C-24.67472167 22.02006898 -24.67472167 22.02006898 -25 19 C-22.24341658 15.51488514 -19.01122602 12.45562388 -15.875 9.3125 C-15.0190625 8.41982422 -14.163125 7.52714844 -13.28125 6.60742188 C-12.44335938 5.76373047 -11.60546875 4.92003906 -10.7421875 4.05078125 C-9.9776123 3.27387939 -9.21303711 2.49697754 -8.42529297 1.6965332 C-5.39045554 -0.4263866 -3.63065911 -0.41635999 0 0 Z " fill="#05CFBF" transform="translate(95,14)"/>
<path d="M0 0 C0.66 0 1.32 0 2 0 C2.09260605 0.58058167 2.1852121 1.16116333 2.28062439 1.75933838 C3.17469304 4.54412185 4.4354153 5.79708904 6.51000977 7.85058594 C7.6210482 8.96128448 7.6210482 8.96128448 8.75453186 10.09442139 C9.55870041 10.88310608 10.36286896 11.67179077 11.19140625 12.484375 C12.01124496 13.29996887 12.83108368 14.11556274 13.67576599 14.95587158 C16.29772762 17.56103106 18.92992448 20.15557079 21.5625 22.75 C23.34117845 24.51363369 25.11918192 26.2779484 26.89648438 28.04296875 C31.2565194 32.36991403 35.62500527 36.68818398 40 41 C40.99 40.67 41.98 40.34 43 40 C43.495 39.01 43.495 39.01 44 38 C43.34 38 42.68 38 42 38 C42 37.34 42 36.68 42 36 C41.34 36 40.68 36 40 36 C40 35.34 40 34.68 40 34 C44.2742558 35.5830577 46.26531794 38.50568404 49 42 C46.36 44.31 43.72 46.62 41 49 C37 47 37 47 34.5 44.3125 C33.675 43.549375 32.85 42.78625 32 42 C28.06728098 42.18669097 26.2625427 44.47911584 23.69921875 47.25390625 C22.88646484 48.10791016 22.07371094 48.96191406 21.23632812 49.84179688 C19.5406206 51.65185097 17.85305194 53.46956514 16.17382812 55.29492188 C9.18471981 62.59294105 9.18471981 62.59294105 5.01953125 62.71484375 C2 62 2 62 0 60 C-0.49160432 55.92906086 -0.58267623 53.8077575 1.85180664 50.43286133 C2.69606201 49.6570874 3.54031738 48.88131348 4.41015625 48.08203125 C5.77043945 46.78942383 5.77043945 46.78942383 7.15820312 45.47070312 C8.11662109 44.59349609 9.07503906 43.71628906 10.0625 42.8125 C11.96005423 41.05983605 13.84739349 39.29602572 15.72265625 37.51953125 C16.56578369 36.74714111 17.40891113 35.97475098 18.27758789 35.17895508 C20.19104523 33.20315665 20.19104523 33.20315665 20.06054688 31.01586914 C18.57939092 28.20051354 16.62767367 26.40271617 14.30859375 24.2265625 C13.36435547 23.3190625 12.42011719 22.4115625 11.44726562 21.4765625 C9.9428439 20.04658791 8.4341139 18.62183739 6.91723633 17.20507812 C5.45141082 15.83007706 4.00471505 14.43477219 2.55859375 13.0390625 C1.68517334 12.21615723 0.81175293 11.39325195 -0.08813477 10.54541016 C-2 8 -2 8 -2.40991211 4.81005859 C-2 2 -2 2 0 0 Z " fill="#0599C4" transform="translate(17,33)"/>
<path d="M0 0 C2.76025391 0.94702148 2.76025391 0.94702148 4.76025391 2.94702148 C5.19687846 6.43521984 5.19073277 8.28739883 3.24853516 11.26342773 C2.53052734 12.00463867 1.81251953 12.74584961 1.07275391 13.50952148 C0.26064453 14.35256836 -0.55146484 15.19561523 -1.38818359 16.06420898 C-2.0663916 16.74628418 -2.0663916 16.74628418 -2.75830078 17.44213867 C-4.39815418 19.1079357 -5.9939643 20.81076956 -7.59130859 22.51733398 C-8.74357308 23.72438331 -9.8972089 24.93012512 -11.05224609 26.13452148 C-11.60291748 26.72370361 -12.15358887 27.31288574 -12.72094727 27.91992188 C-14.32177734 29.55249023 -14.32177734 29.55249023 -17.23974609 31.94702148 C-19.92022201 31.77409822 -20.99880755 31.17746041 -22.94287109 29.31811523 C-23.70857422 28.36098633 -23.70857422 28.36098633 -24.48974609 27.38452148 C-25.01052734 26.74385742 -25.53130859 26.10319336 -26.06787109 25.44311523 C-26.45458984 24.9494043 -26.84130859 24.45569336 -27.23974609 23.94702148 C-23.9541925 20.48832371 -20.64620171 17.05335832 -17.31542969 13.63818359 C-16.18593503 12.4735037 -15.06280451 11.30261643 -13.94628906 10.12548828 C-12.33913794 8.43333672 -10.71034002 6.76490719 -9.07568359 5.09936523 C-8.5816806 4.56923325 -8.08767761 4.03910126 -7.57870483 3.49290466 C-4.9583897 0.86970354 -3.77630261 -0.06175265 0 0 Z " fill="#0F53BB" transform="translate(111.23974609375,32.052978515625)"/>
<path d="M0 0 C0.65484375 0.66257812 1.3096875 1.32515625 1.984375 2.0078125 C4.26774885 4.29601719 6.60303896 6.5226618 8.953125 8.7421875 C10.38571805 10.11947825 11.81800316 11.49708937 13.25 12.875 C13.9821875 13.55691406 14.714375 14.23882812 15.46875 14.94140625 C18.84134405 18.22031714 20.77559492 20.22722476 22.109375 24.8203125 C22 28 22 28 20 31 C15.93494584 31.56013936 13.81203056 31.56373 10.40112305 29.19580078 C9.61261963 28.37063965 8.82411621 27.54547852 8.01171875 26.6953125 C7.14095703 25.80199219 6.27019531 24.90867187 5.37304688 23.98828125 C4.48681641 23.04339844 3.60058594 22.09851563 2.6875 21.125 C1.32915039 19.71927734 1.32915039 19.71927734 -0.05664062 18.28515625 C-2.38614235 15.87053478 -4.69411598 13.43711319 -7 11 C-7.66 10.34 -8.32 9.68 -9 9 C-7.6078125 7.88625 -7.6078125 7.88625 -6.1875 6.75 C-3.72873042 4.70974439 -1.78352451 2.67528677 0 0 Z " fill="#0696C0" transform="translate(74,82)"/>
<path d="M0 0 C0.33 0 0.66 0 1 0 C1.33 2.31 1.66 4.62 2 7 C2.5775 6.7525 3.155 6.505 3.75 6.25 C4.4925 6.1675 5.235 6.085 6 6 C8.25 7.9375 8.25 7.9375 10 10 C9.58492187 10.34289062 9.16984375 10.68578125 8.7421875 11.0390625 C5.17779937 14.06655535 1.79945699 17.17263245 -1.40234375 20.58203125 C-2.00481934 21.2147998 -2.60729492 21.84756836 -3.22802734 22.49951172 C-4.43755619 23.77729187 -5.63240427 25.06915319 -6.81103516 26.37548828 C-9.90209996 29.61712322 -11.23295815 30.89222079 -15.80859375 31.53515625 C-19 31 -19 31 -21 29 C-21.48568397 24.93886802 -21.55892215 22.79808536 -19.17993164 19.40112305 C-18.34840576 18.61261963 -17.51687988 17.82411621 -16.66015625 17.01171875 C-15.76232422 16.14095703 -14.86449219 15.27019531 -13.93945312 14.37304688 C-12.51536133 13.04370117 -12.51536133 13.04370117 -11.0625 11.6875 C-9.19760587 9.90142212 -7.33424275 8.11374384 -5.47265625 6.32421875 C-4.64000244 5.54135498 -3.80734863 4.75849121 -2.94946289 3.9519043 C-0.94226197 2.1475523 -0.94226197 2.1475523 0 0 Z " fill="#00C6B4" transform="translate(38,64)"/>
<path d="M0 0 C3.97199176 -0.47151386 5.54704236 -0.34247051 8.79248047 2.11132812 C9.74957857 3.0693691 10.69049198 4.04377104 11.6171875 5.03125 C12.11920685 5.54175903 12.6212262 6.05226807 13.13845825 6.57824707 C14.73198805 8.20525059 16.30334778 9.85188122 17.875 11.5 C18.95432927 12.60943654 20.03504466 13.71752639 21.1171875 14.82421875 C23.7611048 17.53413951 26.38533709 20.26185458 29 23 C27.35 24.32 25.7 25.64 24 27 C22.68 26.34 21.36 25.68 20 25 C19.67 25.99 19.34 26.98 19 28 C16.60682173 26.0520642 14.30226402 24.05387161 12 22 C11.4642334 21.53303711 10.9284668 21.06607422 10.37646484 20.58496094 C8.55677514 18.98050335 6.77756386 17.33842053 5 15.6875 C4.39969971 15.16712158 3.79939941 14.64674316 3.1809082 14.1105957 C0.62928225 11.68349354 -0.92703479 10.19120507 -1.1484375 6.57666016 C-0.90199663 4.32832731 -0.54378378 2.19398217 0 0 Z " fill="#05B3E3" transform="translate(36,14)"/>
<path d="M0 0 C0.99 0.33 1.98 0.66 3 1 C2.5954415 5.47143609 -0.54648036 7.84292335 -3.625 10.75 C-7.01697512 13.99599138 -10.28170319 17.26874443 -13.34765625 20.828125 C-17.30855195 25.41592506 -21.52991825 29.71370395 -25.8125 34 C-26.57498047 34.77472656 -27.33746094 35.54945312 -28.12304688 36.34765625 C-28.85201172 37.07855469 -29.58097656 37.80945313 -30.33203125 38.5625 C-30.98921143 39.22378906 -31.6463916 39.88507813 -32.32348633 40.56640625 C-34 42 -34 42 -36 42 C-36.53881446 38.83628535 -36.74017451 37.06796063 -36 34 C-33.3341069 30.33401788 -30.07868407 27.3730535 -26.75 24.3125 C-25.01375217 22.66473157 -23.27931617 21.01505149 -21.546875 19.36328125 C-20.38430176 18.28494019 -20.38430176 18.28494019 -19.19824219 17.18481445 C-16.90194719 14.9946653 -16.90194719 14.9946653 -14.84082031 12.22729492 C-13.92961426 11.12478394 -13.92961426 11.12478394 -13 10 C-12.34 10 -11.68 10 -11 10 C-10.67 9.01 -10.34 8.02 -10 7 C-8.00892752 5.98234073 -6.00781177 4.98422146 -4 4 C-1.68581709 1.93832739 -1.68581709 1.93832739 0 0 Z " fill="#0057CA" transform="translate(73,69)"/>
<path d="M0 0 C0.65484375 0.66257812 1.3096875 1.32515625 1.984375 2.0078125 C4.26774885 4.29601719 6.60303896 6.5226618 8.953125 8.7421875 C10.38571805 10.11947825 11.81800316 11.49708937 13.25 12.875 C13.9821875 13.55691406 14.714375 14.23882812 15.46875 14.94140625 C21.35984536 20.66886007 21.35984536 20.66886007 21.984375 25.0078125 C21.98953125 25.99523437 21.9946875 26.98265625 22 28 C15.58174942 28 12.58208404 23.39896316 8.1875 19.0625 C7.29095703 18.23169922 6.39441406 17.40089844 5.47070312 16.54492188 C-0.81993694 10.36016863 -0.81993694 10.36016863 -1.34912109 6.36279297 C-1.10173275 4.1204791 -0.71632687 2.13542237 0 0 Z " fill="#09AAD5" transform="translate(74,82)"/>
<path d="M0 0 C1.1055189 0.93590504 2.20935453 1.87379858 3.3125 2.8125 C3.92738281 3.33457031 4.54226562 3.85664062 5.17578125 4.39453125 C6.85424679 5.87172469 8.43882034 7.40039131 10 9 C8.34908222 13.29238623 5.26245434 15.8793915 2 19 C-0.99220268 17.63629701 -3.29026529 16.05091917 -5.75 13.875 C-6.36359375 13.33617188 -6.9771875 12.79734375 -7.609375 12.2421875 C-8.06828125 11.83226563 -8.5271875 11.42234375 -9 11 C-7.59155282 7.78475695 -5.89655214 5.67816132 -3.375 3.25 C-2.74335937 2.63640625 -2.11171875 2.0228125 -1.4609375 1.390625 C-0.73777344 0.70226563 -0.73777344 0.70226563 0 0 Z " fill="#E6F8F9" transform="translate(65,55)"/>
<path d="M0 0 C1 2 1 2 0.81640625 4.84228516 C1.04841346 8.83268579 2.09104783 9.7955875 4.9375 12.5234375 C5.74960937 13.31621094 6.56171875 14.10898437 7.3984375 14.92578125 C8.25695313 15.73402344 9.11546875 16.54226562 10 17.375 C10.85851563 18.20644531 11.71703125 19.03789063 12.6015625 19.89453125 C14.72152505 21.94382838 16.85418984 23.97784025 19 26 C19.66 25.34 20.32 24.68 21 24 C21.721875 24.226875 22.44375 24.45375 23.1875 24.6875 C26.57101793 25.06344644 27.02168056 24.508904 29.625 22.5 C30.19476563 22.0153125 30.76453125 21.530625 31.3515625 21.03125 C32.16753906 20.52078125 32.16753906 20.52078125 33 20 C33.99 20.33 34.98 20.66 36 21 C35.48501953 21.48355957 34.97003906 21.96711914 34.43945312 22.46533203 C32.11061247 24.66930046 29.80541716 26.89655226 27.5 29.125 C26.68917969 29.88554688 25.87835938 30.64609375 25.04296875 31.4296875 C24.27597656 32.17734375 23.50898437 32.925 22.71875 33.6953125 C22.00654297 34.37609863 21.29433594 35.05688477 20.56054688 35.75830078 C18.55271774 38.64251341 18.70735272 40.56139444 19 44 C17.125 44.625 17.125 44.625 15 45 C14.34 44.34 13.68 43.68 13 43 C13.29168756 39.38008264 14.99615571 37.67636187 17.5625 35.25 C18.52349609 34.32960938 18.52349609 34.32960938 19.50390625 33.390625 C19.99761719 32.93171875 20.49132812 32.4728125 21 32 C17.81158187 28.14377146 14.57400266 24.51386154 10.94921875 21.0625 C10.25119141 20.39476563 9.55316406 19.72703125 8.83398438 19.0390625 C7.39269523 17.66990339 5.94197798 16.31060674 4.48242188 14.9609375 C-1.36216417 9.31788891 -1.36216417 9.31788891 -2.10546875 5.125 C-2 2 -2 2 0 0 Z " fill="#18AFC1" transform="translate(35,15)"/>
<path d="M0 0 C0.99 0.33 1.98 0.66 3 1 C1.64631822 7.16357236 -1.8646315 10.56466155 -6.1875 14.875 C-7.15913086 15.90753906 -7.15913086 15.90753906 -8.15039062 16.9609375 C-12.9237431 21.76767006 -12.9237431 21.76767006 -16.04931641 22.44238281 C-17.98828125 22.4453125 -17.98828125 22.4453125 -21 22 C-21.33 21.01 -21.66 20.02 -22 19 C-16.25 14 -16.25 14 -14 14 C-13.67 13.01 -13.34 12.02 -13 11 C-10.4978584 8.48032003 -7.72636729 6.27283171 -5 4 C-4.071875 3.175 -3.14375 2.35 -2.1875 1.5 C-1.465625 1.005 -0.74375 0.51 0 0 Z " fill="#08D6C5" transform="translate(41,72)"/>
<path d="M0 0 C1.65 0 3.3 0 5 0 C4.45982088 3.97031653 2.59261026 5.72196006 -0.25 8.4375 C-1.06597656 9.22511719 -1.88195312 10.01273438 -2.72265625 10.82421875 C-3.47417969 11.54222656 -4.22570312 12.26023437 -5 13 C-5.886875 13.9075 -6.77375 14.815 -7.6875 15.75 C-15.03059143 22.8946295 -15.03059143 22.8946295 -18.875 23.3125 C-19.57625 23.209375 -20.2775 23.10625 -21 23 C-19.90422771 19.71268312 -19.22195399 19.11996244 -16.625 17 C-12.94035073 13.87707585 -9.47711025 10.59875712 -6.0625 7.1875 C-5.57797363 6.70732422 -5.09344727 6.22714844 -4.59423828 5.73242188 C-1.96656594 3.11515485 -1.96656594 3.11515485 0 0 Z " fill="#0156CA" transform="translate(108,34)"/>
<path d="M0 0 C0.99 0.33 1.98 0.66 3 1 C-6.9 10.9 -16.8 20.8 -27 31 C-27.33 30.01 -27.66 29.02 -28 28 C-27.44538086 27.45061768 -26.89076172 26.90123535 -26.31933594 26.33520508 C-23.79356709 23.83029944 -21.27175563 21.32144555 -18.75 18.8125 C-17.87730469 17.94818359 -17.00460938 17.08386719 -16.10546875 16.19335938 C-14.83896484 14.93168945 -14.83896484 14.93168945 -13.546875 13.64453125 C-12.77182617 12.87471924 -11.99677734 12.10490723 -11.19824219 11.31176758 C-8.9201811 8.99436025 -8.9201811 8.99436025 -6.84082031 6.2097168 C-6.23334961 5.48051025 -5.62587891 4.75130371 -5 4 C-4.34 4 -3.68 4 -3 4 C-2.67 3.01 -2.34 2.02 -2 1 C-1.34 0.67 -0.68 0.34 0 0 Z " fill="#0658BD" transform="translate(65,75)"/>
<path d="M0 0 C0.99 0.33 1.98 0.66 3 1 C-4 8 -11 15 -18 22 C-16.35 22 -14.7 22 -13 22 C-12.67 24.31 -12.34 26.62 -12 29 C-16.63268926 27.28418916 -17.37625207 25.34849752 -21 21 C-14.07 14.07 -7.14 7.14 0 0 Z " fill="#0956BC" transform="translate(105,35)"/>
<path d="M0 0 C0.75366211 1.72900391 0.75366211 1.72900391 1 4 C-0.63061523 6.10302734 -0.63061523 6.10302734 -3.05859375 8.3359375 C-3.91904297 9.15320313 -4.77949219 9.97046875 -5.66601562 10.8125 C-7.50767306 12.51528686 -9.3514122 14.21582509 -11.19726562 15.9140625 C-12.05900391 16.73390625 -12.92074219 17.55375 -13.80859375 18.3984375 C-15.01213501 19.50711182 -15.01213501 19.50711182 -16.23999023 20.63818359 C-18.44898034 23.60250185 -18.34888612 25.38758173 -18 29 C-16.02 29.33 -14.04 29.66 -12 30 C-12 30.33 -12 30.66 -12 31 C-15.375 31.125 -15.375 31.125 -19 31 C-21 29 -21 29 -21.39624023 25.68676758 C-20.91596654 21.21812117 -19.87797208 20.06304745 -16.66015625 17.01171875 C-15.76232422 16.14095703 -14.86449219 15.27019531 -13.93945312 14.37304688 C-12.51536133 13.04370117 -12.51536133 13.04370117 -11.0625 11.6875 C-9.19760587 9.90142212 -7.33424275 8.11374384 -5.47265625 6.32421875 C-4.64000244 5.54135498 -3.80734863 4.75849121 -2.94946289 3.9519043 C-0.94226197 2.1475523 -0.94226197 2.1475523 0 0 Z " fill="#1EBFB2" transform="translate(38,64)"/>
<path d="M0 0 C0.66 0.66 1.32 1.32 2 2 C-5.59 9.59 -13.18 17.18 -21 25 C-21.99 24.67 -22.98 24.34 -24 24 C-16 16 -8 8 0 0 Z " fill="#CFE7FA" transform="translate(106,31)"/>
<path d="M0 0 C2.97 0 5.94 0 9 0 C9 0.66 9 1.32 9 2 C9.57814453 2.25072266 10.15628906 2.50144531 10.75195312 2.75976562 C13.29790673 4.16435341 14.9498449 5.75448616 16.96875 7.84375 C17.70480469 8.59527344 18.44085938 9.34679688 19.19921875 10.12109375 C20.73307292 11.70703125 22.26692708 13.29296875 23.80078125 14.87890625 C24.53683594 15.63042969 25.27289063 16.38195312 26.03125 17.15625 C26.69705078 17.84525391 27.36285156 18.53425781 28.04882812 19.24414062 C29.95305587 20.95775498 31.661274 21.98576988 34 23 C32.02 23.99 32.02 23.99 30 25 C29.64550781 24.57332031 29.29101562 24.14664063 28.92578125 23.70703125 C24.89798348 18.97705082 20.63322412 14.52286129 16.25 10.125 C15.68321533 9.55370361 15.11643066 8.98240723 14.5324707 8.39379883 C12.11887794 5.98881963 9.84353816 3.89569211 7 2 C3.36060068 2.31730524 3.36060068 2.31730524 0 3 C0 2.01 0 1.02 0 0 Z " fill="#DAFCFD" transform="translate(16,31)"/>
<path d="M0 0 C0 0.33 0 0.66 0 1 C-0.76054688 1.09539063 -1.52109375 1.19078125 -2.3046875 1.2890625 C-5.42697862 2.11262334 -6.17314865 2.87131633 -8.125 5.375 C-11.20929092 9.1363304 -14.48328232 12.58346067 -17.9375 16 C-18.43459473 16.49290527 -18.93168945 16.98581055 -19.44384766 17.49365234 C-20.6271522 18.66454026 -21.81327008 19.83258395 -23 21 C-23.99 20.67 -24.98 20.34 -26 20 C-23.28110974 17.13239064 -20.54258287 14.28518975 -17.78466797 11.45507812 C-16.39129608 10.01682103 -15.01388364 8.56315819 -13.63671875 7.109375 C-12.75371094 6.20703125 -11.87070313 5.3046875 -10.9609375 4.375 C-9.75123291 3.11816406 -9.75123291 3.11816406 -8.51708984 1.8359375 C-5.45064487 -0.40069356 -3.71206657 -0.37733841 0 0 Z " fill="#1CC6B7" transform="translate(95,14)"/>
<path d="M0 0 C0 2.86387552 -0.41793286 4.20372023 -1.375 6.8125 C-2.03611955 8.89425479 -2.03611955 8.89425479 -2 11 C-0.37954753 13.49907442 1.62399358 15.22806301 4 17 C3.67 17.66 3.34 18.32 3 19 C-0.3 15.7 -3.6 12.4 -7 9 C-5.04783565 5.09567131 -3.12613393 2.96160056 0 0 Z " fill="#0C97B9" transform="translate(73,47)"/>
<path d="M0 0 C0 3.51716303 -0.82445585 4.37121748 -3 7 C-1.35 7 0.3 7 2 7 C2.33 9.31 2.66 11.62 3 14 C-1.2742558 12.4169423 -3.26531794 9.49431596 -6 6 C-4.02 4.02 -2.04 2.04 0 0 Z " fill="#0657B4" transform="translate(90,50)"/>
<path d="M0 0 C0.33 0.99 0.66 1.98 1 3 C0.484375 3.969375 -0.03125 4.93875 -0.5625 5.9375 C-1.036875 6.948125 -1.51125 7.95875 -2 9 C-1.27489266 11.20072961 -1.27489266 11.20072961 0 13 C0 13.99 0 14.98 0 16 C-2.64 13.69 -5.28 11.38 -8 9 C-6.8553125 7.88625 -6.8553125 7.88625 -5.6875 6.75 C-3.5606298 4.5736677 -1.7440044 2.47832204 0 0 Z " fill="#0A87B0" transform="translate(73,83)"/>
<path d="M0 0 C0.66 0.33 1.32 0.66 2 1 C1.01 1.7734375 1.01 1.7734375 0 2.5625 C-2.65637543 5.79995755 -2.31342132 7.92552281 -2 12 C-3.875 12.625 -3.875 12.625 -6 13 C-6.66 12.34 -7.32 11.68 -8 11 C-7.70831244 7.38008264 -6.00384429 5.67636187 -3.4375 3.25 C-2.79683594 2.63640625 -2.15617187 2.0228125 -1.49609375 1.390625 C-1.00238281 0.93171875 -0.50867187 0.4728125 0 0 Z " fill="#0DA59C" transform="translate(56,47)"/>
<path d="M0 0 C0.66 0.33 1.32 0.66 2 1 C-0.80804268 3.96404505 -3.18315774 6.44499019 -7 8 C-7.66 6.68 -8.32 5.36 -9 4 C-8.34 3.01 -7.68 2.02 -7 1 C-5.824375 1.309375 -5.824375 1.309375 -4.625 1.625 C-3.75875 1.74875 -2.8925 1.8725 -2 2 C-1.34 1.34 -0.68 0.68 0 0 Z " fill="#0495B7" transform="translate(63,38)"/>
<path d="M0 0 C4.66666667 4.66666667 9.33333333 9.33333333 14 14 C13.01 14.33 12.02 14.66 11 15 C11 14.34 11 13.68 11 13 C10.34 13 9.68 13 9 13 C9 12.34 9 11.68 9 11 C8.34 11 7.68 11 7 11 C7 10.34 7 9.68 7 9 C6.34 9 5.68 9 5 9 C5 8.34 5 7.68 5 7 C4.34 7 3.68 7 3 7 C3 6.34 3 5.68 3 5 C2.01 5 1.02 5 0 5 C0 3.35 0 1.7 0 0 Z " fill="#38B0D1" transform="translate(74,82)"/>
<path d="M0 0 C1.32 0.33 2.64 0.66 4 1 C0.04 4.465 0.04 4.465 -4 8 C-5.32 7.34 -6.64 6.68 -8 6 C-5.61426621 4.10786631 -3.92824652 2.97608217 -1 2 C-0.67 1.34 -0.34 0.68 0 0 Z " fill="#077EAA" transform="translate(62,74)"/>
<path d="M0 0 C1.31611677 0.95336021 2.62778961 1.91285774 3.9375 2.875 C4.66839844 3.40867187 5.39929687 3.94234375 6.15234375 4.4921875 C8 6 8 6 9 8 C8.071875 7.649375 7.14375 7.29875 6.1875 6.9375 C3.0197047 5.67617372 3.0197047 5.67617372 0 7 C0 4.69 0 2.38 0 0 Z " fill="#009DA0" transform="translate(39,65)"/>
<path d="M0 0 C1.17825358 0.90172468 2.34231577 1.82201502 3.5 2.75 C4.1496875 3.26046875 4.799375 3.7709375 5.46875 4.296875 C7 6 7 6 7 10 C6.67 9.34 6.34 8.68 6 8 C5.01 8 4.02 8 3 8 C2.566875 6.824375 2.566875 6.824375 2.125 5.625 C1.15087746 2.90328368 1.15087746 2.90328368 -1 1 C-0.67 0.67 -0.34 0.34 0 0 Z " fill="#014393" transform="translate(75,65)"/>
<path d="M0 0 C2.31 1.98 4.62 3.96 7 6 C5.68 7.32 4.36 8.64 3 10 C2.690625 8.906875 2.38125 7.81375 2.0625 6.6875 C1.41662103 4.44592006 0.7376883 2.2130649 0 0 Z " fill="#D3FEFE" transform="translate(50,40)"/>
<path d="M0 0 C3.7952131 1.49097658 5.61042731 3.75700849 8 7 C7.01 7 6.02 7 5 7 C4.67 6.01 4.34 5.02 4 4 C3.34 4 2.68 4 2 4 C2 3.34 2 2.68 2 2 C1.34 2 0.68 2 0 2 C0 1.34 0 0.68 0 0 Z " fill="#33A8C7" transform="translate(57,67)"/>
<path d="M0 0 C-0.66 1.98 -1.32 3.96 -2 6 C-3.32 5.01 -4.64 4.02 -6 3 C-3.375 0 -3.375 0 0 0 Z " fill="#0874A1" transform="translate(71,88)"/>
<path d="M0 0 C2.46800047 1.15173355 4.04783565 2.04783565 6 4 C3.525 5.485 3.525 5.485 1 7 C1.33 5.68 1.66 4.36 2 3 C1.34 3 0.68 3 0 3 C0 2.01 0 1.02 0 0 Z " fill="#12BDB4" transform="translate(42,70)"/>
<path d="M0 0 C1.4606285 2.64738916 2 3.89448334 2 7 C0.68 6.34 -0.64 5.68 -2 5 C-1.125 1.125 -1.125 1.125 0 0 Z " fill="#00439B" transform="translate(91,57)"/>
<path d="M0 0 C-1.04874998 2.62187494 -1.64931313 3.79371361 -4.125 5.25 C-4.74375 5.4975 -5.3625 5.745 -6 6 C-6.33 5.34 -6.66 4.68 -7 4 C-2.25 0 -2.25 0 0 0 Z " fill="#D0E9FA" transform="translate(71,68)"/>
<path d="M0 0 C0.66 0 1.32 0 2 0 C0.60667426 3.36720387 -0.9789286 4.9859524 -4 7 C-4.33 6.01 -4.66 5.02 -5 4 C-4.01 4 -3.02 4 -2 4 C-2 3.34 -2 2.68 -2 2 C-1.34 2 -0.68 2 0 2 C0 1.34 0 0.68 0 0 Z " fill="#3163B1" transform="translate(97,57)"/>
</svg>
