<?xml version="1.0" encoding="UTF-8"?>
<svg version="1.1" xmlns="http://www.w3.org/2000/svg" width="110" height="99">
<path d="M0 0 C36.3 0 72.6 0 110 0 C110 32.67 110 65.34 110 99 C73.7 99 37.4 99 0 99 C0 66.33 0 33.66 0 0 Z " fill="#F6F8F8" transform="translate(0,0)"/>
<path d="M0 0 C6.47333712 -0.11575431 10.63502506 1.35668639 16 5 C18.87761217 8.02815124 21.13386665 11.2677333 23 15 C23.36351563 14.4225 23.72703125 13.845 24.1015625 13.25 C28.2312765 7.1507301 28.2312765 7.1507301 32.1875 6.375 C35 7 35 7 38 9 C38.55861621 14.02754588 38.0069964 16.11596298 35 20 C34.30516344 24.08216478 34.66331489 25.52047879 37.0625 28.9375 C39.89624729 31.34717255 39.89624729 31.34717255 43.625 31 C47.55785941 29.9303714 47.55785941 29.9303714 50 27 C51.10300354 24.22135764 51.10300354 24.22135764 51 21 C50.14809047 19.19182243 50.14809047 19.19182243 49 17.4375 C47 14 47 14 47.125 11.1875 C48 9 48 9 50 7 C52.75 6.4375 52.75 6.4375 56 7 C58.32084762 9.10556537 60.17338919 11.46088143 62 14 C62.515625 13.29875 63.03125 12.5975 63.5625 11.875 C68.42875089 6.13531946 73.49243716 1.6781611 81 0 C82.66657296 -0.01767342 84.33344772 -0.0195259 86 0 C86.10059445 3.89184452 86.17225841 7.78316254 86.21972656 11.67602539 C86.24919327 13.63389776 86.30007758 15.59141099 86.3515625 17.54882812 C86.49622913 31.7623245 83.058672 43.01255536 73.625 53.6875 C62.45601061 63.52684779 52.49605874 67.02354477 37.60546875 66.4453125 C27.65185639 65.71704902 19.04301019 60.94820043 12 54 C3.9517431 44.65827325 -0.1537911 33.68025183 -0.09765625 21.38671875 C-0.09443359 20.13955078 -0.09121094 18.89238281 -0.08789062 17.60742188 C-0.07532227 15.66706055 -0.07532227 15.66706055 -0.0625 13.6875 C-0.05798828 12.37458984 -0.05347656 11.06167969 -0.04882812 9.70898438 C-0.03705949 6.4726099 -0.0206176 3.23632822 0 0 Z " fill="#0250B7" transform="translate(12,15)"/>
<path d="M0 0 C2.8125 0.625 2.8125 0.625 5.8125 2.625 C6.37111621 7.65254588 5.8194964 9.74096298 2.8125 13.625 C2.11766344 17.70716478 2.47581489 19.14547879 4.875 22.5625 C7.70874729 24.97217255 7.70874729 24.97217255 11.4375 24.625 C15.37035941 23.5553714 15.37035941 23.5553714 17.8125 20.625 C18.91550354 17.84635764 18.91550354 17.84635764 18.8125 14.625 C17.96059047 12.81682243 17.96059047 12.81682243 16.8125 11.0625 C14.8125 7.625 14.8125 7.625 14.9375 4.8125 C15.8125 2.625 15.8125 2.625 17.8125 0.625 C20.5625 0.0625 20.5625 0.0625 23.8125 0.625 C27.12941137 3.48995347 29.4261591 6.4659773 30.8125 10.625 C30.86881717 17.59706591 29.90016443 23.86139316 25.8125 29.625 C19.93585947 35.2078085 15.0610401 36.200733 7.08203125 36.06640625 C1.23049344 35.27641369 -1.75958306 32.34343691 -5.55859375 28.08984375 C-9.28268151 22.84519421 -8.55176964 16.78722814 -8.1875 10.625 C-8.8475 10.625 -9.5075 10.625 -10.1875 10.625 C-7.83616197 5.92232395 -5.37574983 1.05406859 0 0 Z " fill="#06B4A6" transform="translate(44.1875,21.375)"/>
<path d="M0 0 C0.66 0 1.32 0 2 0 C2 0.66 2 1.32 2 2 C2.8353125 2.4021875 2.8353125 2.4021875 3.6875 2.8125 C6.21225334 4.10899496 8.63714484 5.42476323 11 7 C11 7.66 11 8.32 11 9 C11.721875 9.12375 12.44375 9.2475 13.1875 9.375 C16 10 16 10 18.0390625 11.015625 C22.404947 12.46708 26.61450023 12.38181042 31.1875 12.375 C32.12843506 12.37556396 33.06937012 12.37612793 34.03881836 12.37670898 C40.82192295 12.26896589 45.98040748 11.18233235 52 8 C53.32346746 7.62942911 54.65539861 7.2844925 56 7 C56 6.34 56 5.68 56 5 C56.99 5.33 57.98 5.66 59 6 C57.69756058 6.95142738 56.38227688 7.88527214 55.0625 8.8125 C54.33160156 9.33457031 53.60070312 9.85664062 52.84765625 10.39453125 C46.06172623 14.22034365 39.42314688 15.56283324 31.6875 15.5 C30.86008301 15.49427979 30.03266602 15.48855957 29.18017578 15.48266602 C18.20395548 15.16487137 8.79009631 10.8086001 1 3 C0.67 2.01 0.34 1.02 0 0 Z " fill="#1C519B" transform="translate(23,66)"/>
<path d="M0 0 C0.02481344 4.03848316 0.0429136 8.07693647 0.05493164 12.11547852 C0.05994454 13.48788222 0.06675658 14.86028062 0.07543945 16.23266602 C0.08763857 18.21107651 0.09272248 20.1895268 0.09765625 22.16796875 C0.10289307 23.35672607 0.10812988 24.5454834 0.11352539 25.77026367 C0.01239479 28.64737487 -0.33449807 31.20673413 -1 34 C-1.33 34 -1.66 34 -2 34 C-2.33 23.44 -2.66 12.88 -3 2 C-5.31 2.66 -7.62 3.32 -10 4 C-10.33 3.34 -10.66 2.68 -11 2 C-7.1389146 0.56331706 -4.103573 -0.11185208 0 0 Z " fill="#316FC4" transform="translate(98,15)"/>
<path d="M0 0 C3.3 0 6.6 0 10 0 C11.26237731 2.52475462 11.09856404 4.31200466 11.0625 7.125 C11.05347656 8.03507812 11.04445313 8.94515625 11.03515625 9.8828125 C11.02355469 10.58148438 11.01195312 11.28015625 11 12 C10.34 12 9.68 12 9 12 C8.25073929 15.66305234 7.7619986 18.42355152 9 22 C9.66 22 10.32 22 11 22 C11 22.66 11 23.32 11 24 C13.64 24 16.28 24 19 24 C18.34 24.66 17.68 25.32 17 26 C12.83698517 25.92290713 10.69730859 25.62578976 7.5625 22.8125 C5.71866446 19.49359602 5.44283847 17.74094169 6 14 C6.495 13.360625 6.99 12.72125 7.5 12.0625 C9.66542552 9.08503991 9.20643094 6.57813621 9 3 C6.04335481 1.5216774 3.25770263 1.93967217 0 2 C0 1.34 0 0.68 0 0 Z " fill="#C9F9F6" transform="translate(40,21)"/>
<path d="M0 0 C3.0518987 4.57784805 1.99080385 8.74443178 1 14 C-1.07537873 20.20558789 -4.20040311 23.68720189 -9.796875 27.09375 C-12.57130576 28.23500521 -14.76088511 28.1961694 -17.75 28.125 C-18.73484375 28.10695313 -19.7196875 28.08890625 -20.734375 28.0703125 C-21.48203125 28.04710938 -22.2296875 28.02390625 -23 28 C-23.33 27.34 -23.66 26.68 -24 26 C-23.1646875 26.05220703 -23.1646875 26.05220703 -22.3125 26.10546875 C-16.73104805 26.30345944 -11.87008743 25.93751306 -7 23 C-1.26649506 16.36120481 -0.64298816 8.40960836 0 0 Z " fill="#0FBBC4" transform="translate(73,29)"/>
<path d="M0 0 C0.99 0.33 1.98 0.66 3 1 C-8.04395832 9.06757239 -16.48572927 10.48074481 -30 10 C-30 9.67 -30 9.34 -30 9 C-28.96101563 8.90203125 -27.92203125 8.8040625 -26.8515625 8.703125 C-19.46558512 7.93633786 -12.83034013 7.05951073 -6.015625 3.90234375 C-4.0241214 3.01079853 -2.12737954 2.46476535 0 2 C0 1.34 0 0.68 0 0 Z " fill="#11448B" transform="translate(79,71)"/>
<path d="M0 0 C3.33169751 3.33169751 3.81657498 4.41437441 4 9 C2.6875 11.875 2.6875 11.875 1 14 C0.34 14 -0.32 14 -1 14 C-1 13.34 -1 12.68 -1 12 C-0.34 12 0.32 12 1 12 C0.67 8.04 0.34 4.08 0 0 Z " fill="#C1F6F4" transform="translate(60,31)"/>
<path d="M0 0 C0.99 0.33 1.98 0.66 3 1 C1.54550599 2.0055761 0.08627557 3.00430435 -1.375 4 C-2.59316406 4.8353125 -2.59316406 4.8353125 -3.8359375 5.6875 C-6 7 -6 7 -8 7 C-7 4 -7 4 -5.125 2.8125 C-3 2 -3 2 0 2 C0 1.34 0 0.68 0 0 Z " fill="#1C539D" transform="translate(79,71)"/>
</svg>
