<?xml version="1.0" encoding="UTF-8"?>
<svg version="1.1" xmlns="http://www.w3.org/2000/svg" width="176" height="129">
<path d="M0 0 C58.08 0 116.16 0 176 0 C176 42.57 176 85.14 176 129 C117.92 129 59.84 129 0 129 C0 86.43 0 43.86 0 0 Z " fill="#F1F5F6" transform="translate(0,0)"/>
<path d="M0 0 C2.82358315 2.07494081 4.34360837 3.48416256 6.3125 6.4375 C5.77195946 10.97804054 5.77195946 10.97804054 4.3125 12.4375 C1.19468018 12.9698107 -0.88822108 12.9582673 -3.58203125 11.203125 C-4.56236328 10.42195313 -4.56236328 10.42195313 -5.5625 9.625 C-13.65615326 3.18963284 -21.41540782 2.39967668 -31.6875 3.4375 C-39.28208624 5.33897614 -45.87526951 10.30638226 -50.26171875 16.75 C-54.86414236 24.76797581 -56.39330244 33.10923808 -53.93359375 42.234375 C-50.48605389 51.15741935 -46.17851389 56.87598445 -37.6875 61.4375 C-33.24989053 63.21742028 -29.33607857 63.81588016 -24.5625 63.9375 C-22.76425781 64.01484375 -22.76425781 64.01484375 -20.9296875 64.09375 C-8.53818837 62.99211458 -0.20593973 53.6337656 7.75 45.125 C9.32253114 43.45640326 10.89949411 41.79301191 12.48951721 40.1410675 C13.91539539 38.65814554 15.32433205 37.15898777 16.73217773 35.65893555 C19.42852229 33.33761479 20.77962753 32.51843343 24.3125 32.4375 C25.7975 33.4275 25.7975 33.4275 27.3125 34.4375 C27.81982422 37.19726562 27.81982422 37.19726562 27.3125 40.4375 C25.66253884 42.66259048 24.16300427 44.38387001 22.1953125 46.28125 C21.39853592 47.07952209 21.39853592 47.07952209 20.58566284 47.8939209 C19.45782501 49.01708472 18.32261167 50.13288417 17.18066406 51.24169922 C15.46059477 52.91503273 13.76827246 54.61291552 12.078125 56.31640625 C1.66450191 66.67608164 -8.82217116 74.30947994 -24 74.875 C-34.46121613 74.59126419 -44.03308684 71.7173355 -51.6875 64.4375 C-52.37585937 63.78910156 -53.06421875 63.14070313 -53.7734375 62.47265625 C-61.59870338 54.42921382 -65.17188696 44.91388907 -65.9375 33.8125 C-65.71844592 22.33406608 -61.19960343 12.28648117 -53.6875 3.75 C-38.83303909 -10.30332144 -16.67973364 -11.3115435 0 0 Z " fill="#0CC8B9" transform="translate(71.6875,34.5625)"/>
<path d="M0 0 C9.62772755 6.41848504 15.49928585 14.42754505 19.1640625 25.421875 C20.41817231 38.33603109 19.80456755 49.61591097 12.02734375 60.37890625 C4.96371492 68.87573513 -4.66108132 75.14017107 -15.8359375 76.421875 C-29.12350599 77.53206349 -37.98192774 74.16913691 -48.71875 66.51953125 C-51.14620349 64.11447124 -51.65724496 62.80028074 -51.8359375 59.421875 C-50.7109375 57.546875 -50.7109375 57.546875 -48.8359375 56.421875 C-44.53933108 56.82190387 -41.75067831 58.54254509 -38.2109375 60.921875 C-30.46834264 66.09774663 -22.92041268 66.28717014 -13.8359375 65.421875 C-4.72577775 63.2074407 0.92951907 58.53714055 5.87109375 50.69921875 C9.81018677 43.76117878 9.93016716 36.2153347 9.1640625 28.421875 C8.2446102 25.12178673 6.91816643 22.35496681 5.1640625 19.421875 C4.80183594 18.78507812 4.43960938 18.14828125 4.06640625 17.4921875 C-0.12492336 10.8713075 -6.39885679 7.47224308 -13.8359375 5.421875 C-16.47336041 5.159788 -18.9510913 5.00726459 -21.5859375 4.984375 C-23.55820313 4.92443359 -23.55820313 4.92443359 -25.5703125 4.86328125 C-37.50304023 5.79846988 -44.96402193 15.04559134 -52.6484375 23.171875 C-54.30618001 24.91811082 -55.96758587 26.65993859 -57.64225769 28.38995361 C-58.67639811 29.45865977 -59.70100697 30.53669936 -60.71430969 31.62518311 C-63.58650066 34.59830184 -65.63173415 36.2425681 -69.8359375 36.421875 C-71.7109375 35.359375 -71.7109375 35.359375 -72.8359375 33.421875 C-72.56560074 28.19521241 -70.93975823 25.90149769 -67.27734375 22.26953125 C-66.58257179 21.57469887 -66.58257179 21.57469887 -65.87376404 20.86582947 C-64.89191616 19.88932581 -63.90397244 18.91891775 -62.91040039 17.9543457 C-61.42036515 16.50569364 -59.95233186 15.03737547 -58.48632812 13.56445312 C-41.9544922 -2.86150215 -22.24971702 -12.38138523 0 0 Z " fill="#0A53B5" transform="translate(142.8359375,32.578125)"/>
<path d="M0 0 C6.37454372 3.64851933 10.25242576 9.09068292 12.5625 16 C13.55880616 24.65621844 12.23770665 31.80084017 6.9375 38.75 C1.4068242 44.64489104 -4.5477648 46.23930755 -12.5 46.5625 C-18.72485228 46.38772013 -22.79614038 45.15033417 -27.4375 41 C-28.0046875 40.50242188 -28.571875 40.00484375 -29.15625 39.4921875 C-30.4375 38 -30.4375 38 -30.25 35.4375 C-29.4375 33 -29.4375 33 -27.4375 31 C-24.02617849 31.18951786 -22.44341151 31.99556636 -19.6875 34.0625 C-15.46359877 36.58059496 -12.24569602 36.86168387 -7.4375 36 C-3.57762604 33.99858387 -0.44303601 31.9055175 1.5625 28 C2.66530384 23.52894258 2.92989202 20.0817654 1.4375 15.6875 C-1.27948638 11.79315285 -3.92336997 9.50471001 -8.4375 8 C-13.69804571 7.60297768 -16.91786957 8.2672002 -21.4375 11 C-22.0975 11.66 -22.7575 12.32 -23.4375 13 C-26.73464793 12.67028521 -28.0601839 12.3773161 -30.4375 10 C-30.4375 7.6875 -30.4375 7.6875 -29.4375 5 C-21.29204901 -2.9603271 -10.50413685 -4.72686158 0 0 Z " fill="#099CC2" transform="translate(133.4375,46)"/>
<path d="M0 0 C3.67469327 1.90296616 6.03846147 3.47751231 8.5 6.8125 C8.41985673 10.25866056 7.9443896 11.3681104 5.5 13.8125 C1.60420892 13.50493755 -0.50292026 12.21016379 -3.5 9.8125 C-8.75017239 8.06244254 -12.85696576 7.99098288 -17.75 10.4375 C-21.87757438 14.00222333 -24.24943987 16.80801896 -24.9375 22.3125 C-24.21456897 28.09594824 -21.94446926 32.06247906 -17.5 35.8125 C-12.35036498 37.52904501 -8.07844794 37.45557138 -3.125 35.4375 C-0.46301969 33.92821258 -0.46301969 33.92821258 1.5 31.8125 C4.79714793 32.14221479 6.1226839 32.4351839 8.5 34.8125 C8.5 37.125 8.5 37.125 7.5 39.8125 C1.97088014 45.21595805 -2.5860708 47.10523689 -10.25 47.25 C-16.84105089 47.13279512 -21.44413551 46.13126721 -26.5 41.8125 C-32.70000632 35.17059258 -35.0608674 29.0248646 -34.87109375 19.94921875 C-34.162879 13.96294035 -31.90411973 9.10712517 -27.52734375 4.9296875 C-25.5692138 3.41442432 -23.63298505 2.06769597 -21.5 0.8125 C-20.58154297 0.24982422 -20.58154297 0.24982422 -19.64453125 -0.32421875 C-13.84537712 -2.65866878 -5.85742865 -1.96738062 0 0 Z " fill="#0953B6" transform="translate(57.5,45.1875)"/>
<path d="M0 0 C0.66 0.33 1.32 0.66 2 1 C-4.0714321 7.99284185 -10.47486159 14.55162822 -17.12133789 20.99633789 C-17.75289795 21.61629639 -18.38445801 22.23625488 -19.03515625 22.875 C-19.6062915 23.42929687 -20.17742676 23.98359375 -20.76586914 24.5546875 C-22.21645402 25.93673844 -22.21645402 25.93673844 -22 28 C-22.61875 28.103125 -23.2375 28.20625 -23.875 28.3125 C-26.36526484 28.87525373 -26.36526484 28.87525373 -28 32 C-27.59305448 26.67368672 -26.04812064 24.43993871 -22.265625 20.7421875 C-21.79058533 20.27185089 -21.31554565 19.80151428 -20.82611084 19.31692505 C-19.31210605 17.82415911 -17.78137132 16.3499219 -16.25 14.875 C-15.23588712 13.877411 -14.22285474 12.87872235 -13.2109375 11.87890625 C-8.95965466 7.70429272 -4.70987148 3.66217402 0 0 Z " fill="#1D62BF" transform="translate(98,34)"/>
<path d="M0 0 C1.25167969 0.01546875 2.50335938 0.0309375 3.79296875 0.046875 C6.8125 0.25 6.8125 0.25 7.8125 1.25 C10.14067964 1.61760731 12.4743385 1.95241581 14.8125 2.25 C14.8125 2.91 14.8125 3.57 14.8125 4.25 C16.1325 4.25 17.4525 4.25 18.8125 4.25 C18.8125 4.91 18.8125 5.57 18.8125 6.25 C17.70068359 5.92515625 17.70068359 5.92515625 16.56640625 5.59375 C7.16658913 3.10860863 -1.52437989 2.93753983 -11.1875 3.25 C-7.62886289 -0.15625214 -4.80752922 -0.09963791 0 0 Z " fill="#CEFCFB" transform="translate(47.1875,24.75)"/>
<path d="M0 0 C1.8871875 0.0309375 1.8871875 0.0309375 3.8125 0.0625 C3.8125 0.3925 3.8125 0.7225 3.8125 1.0625 C2.94238281 1.19205078 2.94238281 1.19205078 2.0546875 1.32421875 C-3.78343543 2.37431017 -7.02734758 3.80088045 -11.1875 8.0625 C-13.05312073 11.085438 -13.41630244 13.283217 -13.3125 16.8125 C-13.29445312 17.61171875 -13.27640625 18.4109375 -13.2578125 19.234375 C-13.23460937 19.83765625 -13.21140625 20.4409375 -13.1875 21.0625 C-13.8475 21.3925 -14.5075 21.7225 -15.1875 22.0625 C-15.1875 17.7725 -15.1875 13.4825 -15.1875 9.0625 C-14.5275 9.0625 -13.8675 9.0625 -13.1875 9.0625 C-13.0946875 8.19625 -13.0946875 8.19625 -13 7.3125 C-11.85039022 4.12896522 -9.93073838 2.95664079 -7.1875 1.0625 C-4.43671116 0.14557039 -2.82801087 -0.04636083 0 0 Z " fill="#104A9A" transform="translate(46.1875,51.9375)"/>
<path d="M0 0 C0.66 0 1.32 0 2 0 C0.60766169 8.77173138 -2.98991467 16.24171562 -10 22 C-10.66 22 -11.32 22 -12 22 C-12 21.34 -12 20.68 -12 20 C-11.34 20 -10.68 20 -10 20 C-10 19.34 -10 18.68 -10 18 C-9.34 18 -8.68 18 -8 18 C-8 17.34 -8 16.68 -8 16 C-7.34 16 -6.68 16 -6 16 C-6 15.01 -6 14.02 -6 13 C-5.34 13 -4.68 13 -4 13 C-3.86722656 12.43796875 -3.73445312 11.8759375 -3.59765625 11.296875 C-2.97562889 8.90633847 -2.22884959 6.58964225 -1.4375 4.25 C-1.16808594 3.45078125 -0.89867187 2.6515625 -0.62109375 1.828125 C-0.41613281 1.22484375 -0.21117187 0.6215625 0 0 Z " fill="#15509E" transform="translate(159,77)"/>
<path d="M0 0 C2.72450554 1.69524789 4.75341816 3.29494089 6.8125 5.75 C6.8125 6.41 6.8125 7.07 6.8125 7.75 C4.8125 7.75 4.8125 7.75 2.25 5.3125 C1.445625 4.466875 0.64125 3.62125 -0.1875 2.75 C-1.20134805 1.51572669 -1.20134805 1.51572669 -3.296875 1.6171875 C-9.79997444 1.61742986 -9.79997444 1.61742986 -16.1875 2.75 C-11.68664068 -2.17951259 -6.0857832 -2.38658165 0 0 Z " fill="#C7F6FC" transform="translate(128.1875,54.25)"/>
<path d="M0 0 C0.94746094 0.2165625 0.94746094 0.2165625 1.9140625 0.4375 C9.66646318 2.04606729 17.10127559 2.20755772 25 2 C21.2261697 4.47014347 17.41324124 4.29759243 13.0625 4.25 C12.00772461 4.26160156 12.00772461 4.26160156 10.93164062 4.2734375 C6.84601282 4.25812118 3.67358827 3.81163257 0 2 C0 1.34 0 0.68 0 0 Z " fill="#D8EDFB" transform="translate(108,95)"/>
<path d="M0 0 C0.66 0.66 1.32 1.32 2 2 C-2.71890538 7.40052505 -7.30358857 12.61814505 -13 17 C-13.66 16.34 -14.32 15.68 -15 15 C-14.50371094 14.67128906 -14.00742188 14.34257813 -13.49609375 14.00390625 C-7.87166105 10.0657361 -3.96623436 5.57751706 0 0 Z " fill="#DCEEFD" transform="translate(157,88)"/>
<path d="M0 0 C0 3.86695678 -1.41909971 6.5088452 -3 10 C-3.66 10 -4.32 10 -5 10 C-5 11.65 -5 13.3 -5 15 C-5.33 15 -5.66 15 -6 15 C-6.45826062 9.2717423 -5.55825861 6.5001506 -2 2 C-1.34 1.34 -0.68 0.68 0 0 Z " fill="#CADEF1" transform="translate(38,56)"/>
<path d="M0 0 C0.66 0.33 1.32 0.66 2 1 C1.06409496 2.1055189 0.12620142 3.20935453 -0.8125 4.3125 C-1.33457031 4.92738281 -1.85664063 5.54226562 -2.39453125 6.17578125 C-3.87172469 7.85424679 -5.40039131 9.43882034 -7 11 C-7.66 10.67 -8.32 10.34 -9 10 C-7.8758824 8.70756532 -6.75067408 7.41607925 -5.625 6.125 C-4.99851562 5.40570313 -4.37203125 4.68640625 -3.7265625 3.9453125 C-2.52573166 2.5923402 -1.2791655 1.2791655 0 0 Z " fill="#20CFC2" transform="translate(22,35)"/>
<path d="M0 0 C0.66 0.99 1.32 1.98 2 3 C1.34 3 0.68 3 0 3 C-0.20625 3.556875 -0.4125 4.11375 -0.625 4.6875 C-2.55000774 7.92501302 -5.03850902 9.68231141 -8 12 C-8.66 11.34 -9.32 10.68 -10 10 C-9.0925 9.46375 -8.185 8.9275 -7.25 8.375 C-3.79561944 6.09936542 -2.08948315 3.53604841 0 0 Z " fill="#CEF6FA" transform="translate(143,79)"/>
<path d="M0 0 C0.55171875 0.22558594 1.1034375 0.45117188 1.671875 0.68359375 C-0.28143368 1.71400888 -2.24094028 2.73268305 -4.203125 3.74609375 C-5.29367188 4.31457031 -6.38421875 4.88304687 -7.5078125 5.46875 C-8.43851563 5.86964844 -9.36921875 6.27054688 -10.328125 6.68359375 C-10.988125 6.35359375 -11.648125 6.02359375 -12.328125 5.68359375 C-10.75465324 4.64762475 -9.16890954 3.63027643 -7.578125 2.62109375 C-6.69640625 2.05261719 -5.8146875 1.48414063 -4.90625 0.8984375 C-2.328125 -0.31640625 -2.328125 -0.31640625 0 0 Z " fill="#2463B7" transform="translate(42.328125,44.31640625)"/>
<path d="M0 0 C0.66 0.33 1.32 0.66 2 1 C1.38125 1.7425 0.7625 2.485 0.125 3.25 C-1.60437281 5.48801188 -2.86106661 7.43739987 -4 10 C-4.8125 7.8125 -4.8125 7.8125 -5 5 C-2.5625 2.1875 -2.5625 2.1875 0 0 Z " fill="#1DA4C6" transform="translate(108,47)"/>
<path d="M0 0 C0.33 0 0.66 0 1 0 C1.24900646 1.93505023 1.47356242 3.87325934 1.6875 5.8125 C1.87892578 7.43091797 1.87892578 7.43091797 2.07421875 9.08203125 C2 12 2 12 -1 15 C-0.67 10.05 -0.34 5.1 0 0 Z " fill="#1D5EB2" transform="translate(153,63)"/>
<path d="M0 0 C0 0.33 0 0.66 0 1 C-0.59167969 1.10957031 -1.18335938 1.21914063 -1.79296875 1.33203125 C-6.41345763 2.25914403 -10.0876779 3.22351335 -14 6 C-13.8125 4.125 -13.8125 4.125 -13 2 C-8.82344286 -0.53124675 -4.72566806 -0.16019214 0 0 Z " fill="#19529E" transform="translate(50,52)"/>
<path d="M0 0 C5.01113235 1.4317521 6.94469549 3.98445693 10 8 C9.67 8.66 9.34 9.32 9 10 C8.2575 9.05125 7.515 8.1025 6.75 7.125 C4.72154781 4.67467599 3.0422152 3.12674637 0 2 C0 1.34 0 0.68 0 0 Z " fill="#2496B4" transform="translate(133,47)"/>
<path d="M0 0 C3.62528568 -0.20140476 5.86501708 0.14223235 9 2 C9 2.66 9 3.32 9 4 C4.545 3.01 4.545 3.01 0 2 C0 1.34 0 0.68 0 0 Z " fill="#D4E9F9" transform="translate(131,27)"/>
<path d="M0 0 C3.02419525 0.58803797 6.01758453 1.22678118 9 2 C9 2.66 9 3.32 9 4 C3.46153846 3.38461538 3.46153846 3.38461538 1.125 1.4375 C0.75375 0.963125 0.3825 0.48875 0 0 Z " fill="#29CDC1" transform="translate(27,103)"/>
</svg>
