<svg width="34" height="34" viewBox="0 0 34 34" fill="none" xmlns="http://www.w3.org/2000/svg">
<path d="M9.99992 0.333313H23.9999C29.3333 0.333313 33.6666 4.66665 33.6666 9.99998V24C33.6666 26.5637 32.6481 29.0225 30.8353 30.8353C29.0224 32.6482 26.5637 33.6666 23.9999 33.6666H9.99992C4.66659 33.6666 0.333252 29.3333 0.333252 24V9.99998C0.333252 7.43622 1.3517 4.97747 3.16455 3.16461C4.9774 1.35176 7.43616 0.333313 9.99992 0.333313ZM9.66658 3.66665C8.07529 3.66665 6.54916 4.29879 5.42394 5.42401C4.29873 6.54922 3.66659 8.07535 3.66659 9.66665V24.3333C3.66659 27.65 6.34992 30.3333 9.66658 30.3333H24.3333C25.9245 30.3333 27.4507 29.7012 28.5759 28.576C29.7011 27.4507 30.3333 25.9246 30.3333 24.3333V9.66665C30.3333 6.34998 27.6499 3.66665 24.3333 3.66665H9.66658ZM25.7499 6.16665C26.3025 6.16665 26.8324 6.38614 27.2231 6.77684C27.6138 7.16754 27.8333 7.69744 27.8333 8.24998C27.8333 8.80251 27.6138 9.33242 27.2231 9.72312C26.8324 10.1138 26.3025 10.3333 25.7499 10.3333C25.1974 10.3333 24.6675 10.1138 24.2768 9.72312C23.8861 9.33242 23.6666 8.80251 23.6666 8.24998C23.6666 7.69744 23.8861 7.16754 24.2768 6.77684C24.6675 6.38614 25.1974 6.16665 25.7499 6.16665ZM16.9999 8.66665C19.2101 8.66665 21.3297 9.54462 22.8925 11.1074C24.4553 12.6702 25.3333 14.7898 25.3333 17C25.3333 19.2101 24.4553 21.3297 22.8925 22.8925C21.3297 24.4553 19.2101 25.3333 16.9999 25.3333C14.7898 25.3333 12.6702 24.4553 11.1074 22.8925C9.54456 21.3297 8.66658 19.2101 8.66658 17C8.66658 14.7898 9.54456 12.6702 11.1074 11.1074C12.6702 9.54462 14.7898 8.66665 16.9999 8.66665ZM16.9999 12C15.6738 12 14.4021 12.5268 13.4644 13.4644C12.5267 14.4021 11.9999 15.6739 11.9999 17C11.9999 18.3261 12.5267 19.5978 13.4644 20.5355C14.4021 21.4732 15.6738 22 16.9999 22C18.326 22 19.5978 21.4732 20.5355 20.5355C21.4731 19.5978 21.9999 18.3261 21.9999 17C21.9999 15.6739 21.4731 14.4021 20.5355 13.4644C19.5978 12.5268 18.326 12 16.9999 12Z" fill="#828282"/>
</svg>
