<svg width="34" height="24" viewBox="0 0 34 24" fill="none" xmlns="http://www.w3.org/2000/svg">
<path d="M13.6666 17L22.3166 12L13.6666 6.99998V17ZM32.9333 3.94998C33.1499 4.73331 33.2999 5.78331 33.3999 7.11665C33.5166 8.44998 33.5666 9.59998 33.5666 10.6L33.6666 12C33.6666 15.65 33.3999 18.3333 32.9333 20.05C32.5166 21.55 31.5499 22.5166 30.0499 22.9333C29.2666 23.15 27.8333 23.3 25.6333 23.4C23.4666 23.5166 21.4833 23.5666 19.6499 23.5666L16.9999 23.6666C10.0166 23.6666 5.66659 23.4 3.94992 22.9333C2.44992 22.5166 1.48325 21.55 1.06659 20.05C0.849919 19.2666 0.699919 18.2166 0.599919 16.8833C0.483252 15.55 0.433252 14.4 0.433252 13.4L0.333252 12C0.333252 8.34998 0.599919 5.66665 1.06659 3.94998C1.48325 2.44998 2.44992 1.48331 3.94992 1.06665C4.73325 0.84998 6.16659 0.699979 8.36659 0.599979C10.5333 0.483313 12.5166 0.433313 14.3499 0.433313L16.9999 0.333313C23.9833 0.333313 28.3333 0.59998 30.0499 1.06665C31.5499 1.48331 32.5166 2.44998 32.9333 3.94998Z" fill="#828282"/>
</svg>
