<svg width="34" height="34" viewBox="0 0 34 34" fill="none" xmlns="http://www.w3.org/2000/svg">
<path d="M16.9999 0.400024C7.83325 0.400024 0.333252 7.88336 0.333252 17.1C0.333252 25.4334 6.43325 32.35 14.3999 33.6V21.9334H10.1666V17.1H14.3999V13.4167C14.3999 9.23336 16.8833 6.93336 20.6999 6.93336C22.5166 6.93336 24.4166 7.25002 24.4166 7.25002V11.3667H22.3166C20.2499 11.3667 19.5999 12.65 19.5999 13.9667V17.1H24.2333L23.4833 21.9334H19.5999V33.6C23.5273 32.9798 27.1036 30.9759 29.6831 27.9501C32.2627 24.9244 33.6755 21.0761 33.6666 17.1C33.6666 7.88336 26.1666 0.400024 16.9999 0.400024Z" fill="#828282"/>
</svg>
