<svg width="34" height="34" viewBox="0 0 34 34" fill="none" xmlns="http://www.w3.org/2000/svg">
<path d="M9.99998 0.333374H24C29.3333 0.333374 33.6666 4.66671 33.6666 10V24C33.6666 26.5638 32.6482 29.0226 30.8353 30.8354C29.0225 32.6483 26.5637 33.6667 24 33.6667H9.99998C4.66665 33.6667 0.333313 29.3334 0.333313 24V10C0.333313 7.43628 1.35176 4.97753 3.16461 3.16468C4.97747 1.35182 7.43622 0.333374 9.99998 0.333374ZM9.66665 3.66671C8.07535 3.66671 6.54922 4.29885 5.42401 5.42407C4.29879 6.54928 3.66665 8.07541 3.66665 9.66671V24.3334C3.66665 27.65 6.34998 30.3334 9.66665 30.3334H24.3333C25.9246 30.3334 27.4507 29.7012 28.576 28.576C29.7012 27.4508 30.3333 25.9247 30.3333 24.3334V9.66671C30.3333 6.35004 27.65 3.66671 24.3333 3.66671H9.66665ZM25.75 6.16671C26.3025 6.16671 26.8324 6.3862 27.2231 6.7769C27.6138 7.1676 27.8333 7.69751 27.8333 8.25004C27.8333 8.80258 27.6138 9.33248 27.2231 9.72318C26.8324 10.1139 26.3025 10.3334 25.75 10.3334C25.1974 10.3334 24.6675 10.1139 24.2768 9.72318C23.8861 9.33248 23.6666 8.80258 23.6666 8.25004C23.6666 7.69751 23.8861 7.1676 24.2768 6.7769C24.6675 6.3862 25.1974 6.16671 25.75 6.16671ZM17 8.66671C19.2101 8.66671 21.3297 9.54468 22.8925 11.1075C24.4553 12.6703 25.3333 14.7899 25.3333 17C25.3333 19.2102 24.4553 21.3298 22.8925 22.8926C21.3297 24.4554 19.2101 25.3334 17 25.3334C14.7898 25.3334 12.6702 24.4554 11.1074 22.8926C9.54462 21.3298 8.66665 19.2102 8.66665 17C8.66665 14.7899 9.54462 12.6703 11.1074 11.1075C12.6702 9.54468 14.7898 8.66671 17 8.66671ZM17 12C15.6739 12 14.4021 12.5268 13.4644 13.4645C12.5268 14.4022 12 15.674 12 17C12 18.3261 12.5268 19.5979 13.4644 20.5356C14.4021 21.4733 15.6739 22 17 22C18.3261 22 19.5978 21.4733 20.5355 20.5356C21.4732 19.5979 22 18.3261 22 17C22 15.674 21.4732 14.4022 20.5355 13.4645C19.5978 12.5268 18.3261 12 17 12Z" fill="#828282"/>
</svg>
