<svg width="34" height="24" viewBox="0 0 34 24" fill="none" xmlns="http://www.w3.org/2000/svg">
<path d="M13.6666 17L22.3166 12L13.6666 7.00004V17ZM32.9333 3.95004C33.15 4.73337 33.3 5.78337 33.4 7.11671C33.5166 8.45004 33.5666 9.60004 33.5666 10.6L33.6666 12C33.6666 15.65 33.4 18.3334 32.9333 20.05C32.5166 21.55 31.55 22.5167 30.05 22.9334C29.2666 23.15 27.8333 23.3 25.6333 23.4C23.4666 23.5167 21.4833 23.5667 19.65 23.5667L17 23.6667C10.0166 23.6667 5.66665 23.4 3.94998 22.9334C2.44998 22.5167 1.48331 21.55 1.06665 20.05C0.84998 19.2667 0.69998 18.2167 0.59998 16.8834C0.483313 15.55 0.433313 14.4 0.433313 13.4L0.333313 12C0.333313 8.35004 0.59998 5.66671 1.06665 3.95004C1.48331 2.45004 2.44998 1.48337 3.94998 1.06671C4.73331 0.850041 6.16665 0.70004 8.36665 0.60004C10.5333 0.483374 12.5166 0.433374 14.35 0.433374L17 0.333374C23.9833 0.333374 28.3333 0.600041 30.05 1.06671C31.55 1.48337 32.5166 2.45004 32.9333 3.95004Z" fill="#828282"/>
</svg>
