<svg preserveAspectRatio="none" width="763" height="42" viewBox="0 0 763 42" fill="none" xmlns="http://www.w3.org/2000/svg">
<path vector-effect="non-scaling-stroke" d="M5.24414 26.2644C24.2762 24.7419 43.3469 20.3539 62.2896 17.8479C79.6634 15.5494 97.4072 15.5934 114.659 13.172C122.329 12.0956 135.921 11.5355 119.101 11.5355C114.993 11.5355 55.1746 8.37079 54.5744 13.172C54.5576 13.3062 100.697 17.8479 106.009 17.8479C114.19 17.8479 97.9704 17.8479 97.4754 17.8479C86.4482 17.8479 75.4209 17.8479 64.3937 17.8479C56.4738 17.8479 36.4942 17.8479 55.9772 17.8479C75.7716 17.8479 95.5661 17.8479 115.361 17.8479C119.686 17.8479 130.59 19.0215 120.036 21.5886C99.6368 26.5507 77.1535 24.1603 56.211 24.1603C45.9291 24.1603 48.743 24.3284 57.1461 24.1603C79.7111 23.709 102.102 21.7569 124.245 17.731C171.24 9.18642 222.279 13.6396 270.248 13.6396C275.47 13.6396 280.691 13.6396 285.912 13.6396C293.853 13.6396 270.123 15.7438 262.182 15.7438C240.206 15.7438 218.229 15.7438 196.253 15.7438C193.217 15.7438 180.397 13.768 179.887 17.8479C179.331 22.2964 177.455 22.0562 184.096 22.0562C197.383 22.0562 210.67 22.0562 223.957 22.0562C261.325 22.0562 298.693 22.0562 336.061 22.0562C353.004 22.0562 368.101 20.6322 384.105 17.9648C397.391 15.7506 371.68 16.012 367.974 15.8607C344.169 14.8891 319.863 13.6396 296.082 13.6396C286.785 13.6396 277.299 13.0601 268.027 13.6396C251.866 14.6497 300.23 17.8479 316.422 17.8479C370.808 17.8479 424.308 9.43136 478.558 9.43136C495.952 9.43136 513.319 8.08751 530.226 12.4707C536.952 14.2146 541.04 13.6396 530.343 13.6396C512.598 13.6396 495.192 13.157 477.739 16.9127C442.4 24.5175 334.984 37.2206 371.13 36.7851C395.736 36.4887 420.431 35.4221 445.008 34.2134C454.875 33.7281 468.439 34.8646 477.739 30.4727C497.285 21.2429 456.06 14.4846 452.022 14.1072C448.198 13.7498 414.428 15.8462 416.486 18.3155C423.253 26.4366 450.06 23.7609 458.802 24.6279C478.742 26.6054 498.284 28.3686 518.302 28.3686C524.233 28.3686 532.949 25.4313 521.342 23.342C498.915 19.3052 474.261 22.0562 451.555 22.0562C445.32 22.0562 426.617 22.0562 432.851 22.0562C465.115 22.0562 497.378 22.0562 529.641 22.0562C558.632 22.0562 587.622 22.0562 616.612 22.0562C623.21 22.0562 621.306 22.3682 615.209 20.6534C598.048 15.8268 581.162 7.99089 563.424 5.45688C561.361 5.16207 554.057 5.29117 554.423 5.33999C567.127 7.03386 579.826 8.84819 592.648 9.31446C594.271 9.37346 613.006 9.18557 600.597 8.49619C573.903 7.01314 546.809 13.2092 521.342 20.6534C519.419 21.2155 507.215 26.2644 507.782 26.2644C523.8 26.2644 539.858 22.5035 555.592 19.952C575.581 16.7106 595.387 13.6396 615.677 13.6396C629.297 13.6396 622.534 13.4354 610.534 13.6396C588.581 14.0133 559.591 12.5493 538.993 22.0562C535.044 23.8789 547.523 23.8479 551.852 24.2772C577.517 26.8225 603.463 27.4334 629.237 27.4334C644.566 27.4334 673.841 30.1796 688.62 21.121C689.795 20.401 691.268 18.4078 690.724 16.9127C688.511 10.8268 677.77 15.4052 671.32 15.9776C642.51 18.534 614.336 24.4707 585.752 28.3686C571.697 30.2851 614.125 28.3677 628.302 27.901C642.229 27.4425 661.433 29.885 675.06 25.7969C683.026 23.4072 689.732 21.8808 698.673 20.8872C708.195 19.8292 717.5 16.7208 726.962 15.8607C729.532 15.627 737.665 15.7438 730.002 15.7438C727.542 15.7438 705.037 14.8876 708.376 18.7831C714.302 25.6967 741.303 24.1603 749.874 24.1603C770.226 24.1603 742.586 16.0012 735.379 15.7438C727.056 15.4465 717.323 17.8118 731.171 21.5886C738.275 23.5262 705.243 17.2729 703.817 17.1465C684.919 15.4729 665.952 15.7438 647.005 15.7438C641.451 15.7438 645.526 16.2022 648.876 16.9127C663.404 19.9944 678.465 21.5273 693.296 21.9393C706.617 22.3093 746.601 22.0562 733.275 22.0562" stroke="black" stroke-width="10" stroke-linecap="round"/>
</svg>
