<svg preserveAspectRatio="none" width="214" height="38" viewBox="0 0 214 38" fill="none" xmlns="http://www.w3.org/2000/svg">
<path vector-effect="non-scaling-stroke" d="M54.0332 22.0873C104.982 19.452 155.843 9.6114 206.933 9.6114C231.28 9.6114 158.415 13.7731 134.156 15.8494C104.801 18.3618 68.3101 15.6591 39.7552 24.5825C37.9572 25.1444 22.7534 29 31.4379 29.4343C66.5883 31.1918 102.904 25.8454 137.622 20.9784C148.929 19.3932 158.016 14.3488 168.534 12.2452C182.446 9.46282 140.118 10.3914 125.978 11.5521C106.254 13.1712 87.6286 20.466 68.1726 22.0873C63.986 22.4362 98.6222 21.2317 102.273 20.9784C120.323 19.726 138.626 18.5994 155.781 12.6611C171.422 7.24692 122.645 12.9051 106.155 14.3245C75.7397 16.9425 33.635 16.1152 4.96125 29.0184C-9.98793 35.7455 37.3944 24.1446 53.4787 20.9784C74.0596 16.927 102.252 16.5283 120.849 5.73C127.968 1.5964 103.792 2.12678 103.66 2.12585C89.6806 2.02809 74.4736 0.587638 60.687 3.51206C58.4373 3.98928 47.8432 7.15887 48.4884 7.39346C66.7 14.0159 125.81 12.1066 106.432 12.1066C81.1313 12.1066 58.7863 16.3815 34.2104 19.4535C29.2893 20.0687 29.9699 19.5921 34.7648 19.5921C46.0037 19.5921 56.7252 18.8121 67.6181 15.988C91.1686 9.8823 55.6015 21.5561 47.1021 22.0873C45.139 22.21 34.367 26.9326 40.1711 27.0777C61.1869 27.6031 82.6593 23.6012 103.66 22.6418C108.864 22.4041 159.29 22.0873 128.334 22.0873C108.725 22.0873 49.9493 24.5825 69.5588 24.5825C104.908 24.5825 140.161 22.0873 175.466 22.0873C181.538 22.0873 188.593 23.04 194.595 21.9487C198.105 21.3106 178.797 17.3063 176.852 17.2356C154.766 16.4325 88.6293 22.0873 110.729 22.0873C132.447 22.0873 154.164 22.0873 175.881 22.0873C178.843 22.0873 188.975 21.9365 179.624 22.0873C165.377 22.3171 151.575 24.8093 137.483 26.5232C131.373 27.2663 107.505 27.0777 126.948 27.0777C139.998 27.0777 152.776 26.4039 165.762 25.137C171.018 24.6243 186.39 26.1727 181.565 24.028C170.807 19.2468 153.996 22.1462 143.028 23.1963C123 25.1139 104.102 30.0144 84.5299 34.0088C65.7085 37.8499 110.761 34.5152 114.472 34.4246C135.119 33.9211 157.635 34.3794 177.822 29.5729C181.946 28.5909 191.093 28.3317 194.595 25.8301C196.651 24.3619 182.237 22.29 181.149 22.2259C168.232 21.4661 155.13 22.0873 142.196 22.0873C136.652 22.0873 131.107 22.0873 125.562 22.0873C120.156 22.0873 136.374 22.0873 141.781 22.0873C159.293 22.0873 211.831 22.0873 194.318 22.0873C180.086 22.0873 165.854 22.0873 151.623 22.0873C131.08 22.0873 157.345 22.5375 163.821 21.9487C170.98 21.2979 188.897 17.1752 171.307 20.8397C168.54 21.4161 153.125 22.0873 156.89 22.0873C163.406 22.0873 177.577 25.214 180.733 17.097C186.942 1.13248 122.462 32.0681 153.841 32.0681C159.848 32.0681 177.772 33.004 171.861 31.9294C158.065 29.4209 144.69 29.5729 130.691 29.5729C122.056 29.5729 147.84 27.0777 156.474 27.0777C160.378 27.0777 179.96 23.1478 166.594 22.2259C137.186 20.1978 107.083 22.0873 77.5988 22.0873C52.8432 22.0873 80.7036 22.0873 90.0748 22.0873C94.0306 22.0873 136.927 19.5921 117.799 19.5921C95.0651 19.5921 72.3312 19.5921 49.5973 19.5921C3.87655 19.5921 232.276 12.1066 186.555 12.1066C152.21 12.1066 117.035 9.69631 82.8665 13.4928C71.7703 14.7257 35.9894 18.2762 67.6181 16.9583C107.23 15.3078 146.599 12.1066 186.278 12.1066C196.319 12.1066 219.902 12.1066 194.595 12.1066C176.205 12.1066 121.034 12.1066 139.424 12.1066C148.768 12.1066 171.899 9.92623 179.07 17.097C181.553 19.5801 172.046 17.097 168.534 17.097C162.671 17.097 156.026 16.1829 150.236 17.2356C141.979 18.737 165.358 19.5921 167.425 19.5921C179.54 19.5921 190.858 14.6018 171.168 14.6018C128.594 14.6018 82.3928 18.8639 40.8642 28.1867C33.5796 29.822 26.2993 31.6283 18.8234 32.0681C12.7346 32.4262 31.0221 32.0681 37.1214 32.0681C48.8502 32.0681 157.928 24.4738 157.722 20.9784C156.924 7.40819 83.9511 12.1066 75.1037 12.1066C71.0904 12.1066 23.3239 11.327 47.1021 12.1066C66.9377 12.7569 84.7472 22.0873 105.323 22.0873C125.69 22.0873 80.7772 22.0873 75.9354 22.0873C70.4858 22.0873 33.737 22.0873 57.0829 22.0873C75.1961 22.0873 93.3093 22.0873 111.422 22.0873" stroke="#F7F8FA" stroke-width="3" stroke-linecap="round"/>
</svg>
