<svg preserveAspectRatio="none" width="137" height="7" viewBox="0 0 137 7" fill="none" xmlns="http://www.w3.org/2000/svg">
<path vector-effect="non-scaling-stroke" d="M3.08925 1.69606C8.1005 1.69606 13.1992 1.39765 18.1982 1.74241C22.0181 2.00585 13.9072 2.67113 13.3781 2.71568C10.1386 2.98849 5.44563 2.51016 2.39405 3.78165C1.64643 4.09316 9.46253 4.94463 10.5974 4.98666C20.9898 5.37156 30.7964 4.11462 41.0006 3.41088C41.6238 3.3679 47.0557 2.58005 45.2645 2.5303C40.3906 2.39491 35.495 2.5303 30.619 2.5303C25.8608 2.5303 21.1025 2.5303 16.3443 2.5303C14.4508 2.5303 15.5212 2.5303 16.6224 2.5303C19.5304 2.5303 22.0864 2.61927 24.9184 3.36453C30.9461 4.95076 37.6456 4.19877 43.8277 4.19877C47.3655 4.19877 50.9033 4.19877 54.4411 4.19877C58.8809 4.19877 55.4205 3.0235 52.958 2.71568C42.6663 1.42923 32.2976 1.69606 21.9522 1.69606C20.4644 1.69606 12.8975 1.69606 18.2909 1.69606C28.7961 1.69606 39.3012 1.69606 49.8064 1.69606C60.0953 1.69606 70.3842 1.69606 80.6731 1.69606C98.1921 1.69606 150.749 1.69606 133.23 1.69606" stroke="black" stroke-width="3" stroke-linecap="round"/>
</svg>
