<svg width="34" height="34" viewBox="0 0 34 34" fill="none" xmlns="http://www.w3.org/2000/svg">
<path d="M10 0.333374H24C29.3333 0.333374 33.6667 4.66671 33.6667 10V24C33.6667 26.5638 32.6482 29.0226 30.8354 30.8354C29.0225 32.6483 26.5638 33.6667 24 33.6667H10C4.66668 33.6667 0.333344 29.3334 0.333344 24V10C0.333344 7.43628 1.35179 4.97753 3.16464 3.16468C4.9775 1.35182 7.43625 0.333374 10 0.333374ZM9.66668 3.66671C8.07538 3.66671 6.54925 4.29885 5.42404 5.42407C4.29882 6.54928 3.66668 8.07541 3.66668 9.66671V24.3334C3.66668 27.65 6.35001 30.3334 9.66668 30.3334H24.3333C25.9246 30.3334 27.4508 29.7012 28.576 28.576C29.7012 27.4508 30.3333 25.9247 30.3333 24.3334V9.66671C30.3333 6.35004 27.65 3.66671 24.3333 3.66671H9.66668ZM25.75 6.16671C26.3025 6.16671 26.8324 6.3862 27.2232 6.7769C27.6139 7.1676 27.8333 7.69751 27.8333 8.25004C27.8333 8.80258 27.6139 9.33248 27.2232 9.72318C26.8324 10.1139 26.3025 10.3334 25.75 10.3334C25.1975 10.3334 24.6676 10.1139 24.2769 9.72318C23.8862 9.33248 23.6667 8.80258 23.6667 8.25004C23.6667 7.69751 23.8862 7.1676 24.2769 6.7769C24.6676 6.3862 25.1975 6.16671 25.75 6.16671ZM17 8.66671C19.2101 8.66671 21.3298 9.54468 22.8926 11.1075C24.4554 12.6703 25.3333 14.7899 25.3333 17C25.3333 19.2102 24.4554 21.3298 22.8926 22.8926C21.3298 24.4554 19.2101 25.3334 17 25.3334C14.7899 25.3334 12.6703 24.4554 11.1075 22.8926C9.54465 21.3298 8.66668 19.2102 8.66668 17C8.66668 14.7899 9.54465 12.6703 11.1075 11.1075C12.6703 9.54468 14.7899 8.66671 17 8.66671ZM17 12C15.6739 12 14.4022 12.5268 13.4645 13.4645C12.5268 14.4022 12 15.674 12 17C12 18.3261 12.5268 19.5979 13.4645 20.5356C14.4022 21.4733 15.6739 22 17 22C18.3261 22 19.5979 21.4733 20.5355 20.5356C21.4732 19.5979 22 18.3261 22 17C22 15.674 21.4732 14.4022 20.5355 13.4645C19.5979 12.5268 18.3261 12 17 12Z" fill="#828282"/>
</svg>
