<?xml version="1.0" encoding="UTF-8"?>
<svg version="1.1" xmlns="http://www.w3.org/2000/svg" width="149" height="140">
<path d="M0 0 C49.17 0 98.34 0 149 0 C149 46.2 149 92.4 149 140 C99.83 140 50.66 140 0 140 C0 93.8 0 47.6 0 0 Z " fill="#F6F8F8" transform="translate(0,0)"/>
<path d="M0 0 C2.7799264 1.16710745 5.09209423 2.7185372 7.57983398 4.42333984 C9.17456543 5.50905273 9.17456543 5.50905273 10.80151367 6.61669922 C12.42814941 7.7352832 12.42814941 7.7352832 14.08764648 8.87646484 C16.08994158 10.23629505 18.09254069 11.59567773 20.09545898 12.95458984 C22.13474597 14.34488563 24.17380368 15.73551776 26.21264648 17.12646484 C36.46144072 24.1084415 46.75116266 31.02507902 57.08764648 37.87646484 C55.71076675 44.6033101 53.85644138 51.00303401 51.65014648 57.50146484 C51.31104248 58.50894775 50.97193848 59.51643066 50.62255859 60.55444336 C47.53646445 69.66580161 44.35343944 78.74328529 41.15014648 87.81396484 C40.90531525 88.5094342 40.66048401 89.20490356 40.40823364 89.92144775 C39.71214559 91.89589484 39.01196404 93.86883622 38.31030273 95.84130859 C37.90561768 96.98204834 37.50093262 98.12278809 37.08398438 99.2980957 C36.08764648 101.87646484 36.08764648 101.87646484 35.08764648 102.87646484 C32.84834763 102.97083014 30.60602898 102.99388812 28.36474609 102.98999023 C27.66234299 102.99013626 26.95993988 102.99028229 26.23625183 102.99043274 C23.9041337 102.98973357 21.57209449 102.98194101 19.23999023 102.97412109 C17.62716211 102.97225693 16.01433341 102.97083302 14.40150452 102.96983337 C10.14849291 102.96600807 5.89551525 102.95617769 1.64251709 102.94512939 C-2.69412782 102.93491553 -7.03077818 102.93033581 -11.36743164 102.92529297 C-19.88242121 102.91455543 -28.39738314 102.89747887 -36.91235352 102.87646484 C-39.50826751 95.28931551 -42.09911017 87.70046139 -44.68356991 80.10940361 C-45.88390849 76.58429362 -47.08595824 73.05978702 -48.29199219 69.53662109 C-49.4567051 66.13395655 -50.61682663 62.72975801 -51.77383614 59.32446671 C-52.21514677 58.02821792 -52.65808431 56.73252179 -53.102705 55.43740463 C-53.72712492 53.61763692 -54.34512977 51.79567186 -54.96289062 49.97363281 C-55.49250648 48.42142532 -55.49250648 48.42142532 -56.03282166 46.83786011 C-56.91738715 43.85951652 -57.46872563 40.94879786 -57.91235352 37.87646484 C-57.30576904 37.47556641 -56.69918457 37.07466797 -56.07421875 36.66162109 C-43.50265698 28.34267335 -31.01109504 19.93553713 -18.66601562 11.28271484 C-16.91651874 10.05693852 -15.16428926 8.83505011 -13.40893555 7.61767578 C-11.72664861 6.44438511 -10.05584058 5.2544832 -8.39624023 4.04931641 C-7.60620605 3.48954102 -6.81617188 2.92976563 -6.00219727 2.35302734 C-5.30860107 1.85109863 -4.61500488 1.34916992 -3.90039062 0.83203125 C-1.91235352 -0.12353516 -1.91235352 -0.12353516 0 0 Z " fill="#03D8C9" transform="translate(73.912353515625,20.12353515625)"/>
<path d="M0 0 C1 2 1 2 0.36669922 4.29980469 C-0.15899658 5.72147949 -0.15899658 5.72147949 -0.6953125 7.171875 C-1.07945313 8.22310547 -1.46359375 9.27433594 -1.859375 10.35742188 C-2.27703125 11.47697266 -2.6946875 12.59652344 -3.125 13.75 C-3.96112468 16.02597291 -4.79706327 18.3020142 -5.6328125 20.578125 C-6.24431152 22.23231445 -6.24431152 22.23231445 -6.86816406 23.91992188 C-8.6740117 28.83419577 -10.39758431 33.77642178 -12.125 38.71875 C-13 41 -13 41 -14 42 C-16.23929886 42.09436529 -18.4816175 42.11742327 -20.72290039 42.11352539 C-21.4253035 42.11367142 -22.1277066 42.11381744 -22.85139465 42.1139679 C-25.18351278 42.11326872 -27.515552 42.10547617 -29.84765625 42.09765625 C-31.46048438 42.09579208 -33.07331307 42.09436818 -34.68614197 42.09336853 C-38.93915357 42.08954323 -43.19213124 42.07971285 -47.44512939 42.06866455 C-51.7817743 42.05845069 -56.11842467 42.05387096 -60.45507812 42.04882812 C-68.97006769 42.03809059 -77.48502963 42.02101403 -86 42 C-87.85529552 36.62617144 -89.70660754 31.25099384 -91.55419922 25.87451172 C-92.18363178 24.04470543 -92.81416201 22.21527636 -93.44580078 20.38623047 C-94.35215705 17.76106984 -95.25459058 15.13458946 -96.15625 12.5078125 C-96.44060913 11.68693146 -96.72496826 10.86605042 -97.01794434 10.02029419 C-99 4.22774341 -99 4.22774341 -99 2 C-94.8494344 3.49945945 -91.31967595 5.57291531 -87.5625 7.875 C-79.64426019 12.55319083 -69.3649096 17.52068897 -60 16 C-58.12126793 13.9864307 -56.76907613 12.28119859 -55.3125 10 C-53.93958934 7.91599202 -52.54095158 5.97241802 -51 4 C-50.01 4 -49.02 4 -48 4 C-46.07405059 6.50821318 -44.34036673 9.0537082 -42.66796875 11.734375 C-41.43357156 13.64060676 -41.43357156 13.64060676 -39 16 C-27.85334606 17.52745767 -15.41866158 10.48471697 -6 5 C-3.91789535 3.40728887 -1.96948012 1.73445152 0 0 Z " fill="#05B9EB" transform="translate(123,81)"/>
<path d="M0 0 C-0.94074299 3.68457672 -1.95052117 7.34491856 -3 11 C-3.2784375 11.9796875 -3.556875 12.959375 -3.84375 13.96875 C-6.82508642 23.32397809 -11.27008941 26.65690933 -19.70043945 31.10864258 C-37.5765886 40.23992255 -37.5765886 40.23992255 -47 39 C-49.27124194 37.14598539 -50.80598934 34.91835633 -52.4375 32.5 C-52.88287109 31.87996094 -53.32824219 31.25992188 -53.78710938 30.62109375 C-54.87867023 29.09525599 -55.94220918 27.54944007 -57 26 C-52.8230203 15.75370726 -38.66287543 9.26154997 -29 5 C-19.36576214 1.3125594 -10.25242451 -0.21813669 0 0 Z " fill="#0158C5" transform="translate(131,59)"/>
<path d="M0 0 C22.62999684 0.06675515 40.40574853 9.17333971 57 24 C54.34930075 29.52558699 51.48634971 34.75556131 47 39 C43.01089371 40.05921922 39.88959819 39.18579078 36 38 C34.98808594 37.7009375 33.97617187 37.401875 32.93359375 37.09375 C24.20334773 34.09440167 11.80302532 29.42413059 6.3046875 21.58203125 C5.29048257 19.07047652 4.62977125 16.63252204 4 14 C3.2668616 12.01452555 2.51674365 10.03524045 1.75 8.0625 C0.6358212 5.08421435 0 3.19839724 0 0 Z " fill="#0157C5" transform="translate(16,59)"/>
<path d="M0 0 C1.13348877 0.00942627 2.26697754 0.01885254 3.43481445 0.02856445 C26.39505649 0.44035586 26.39505649 0.44035586 35.1875 8.375 C32.61411421 9.6616929 31.17611599 9.31868961 28.31640625 9.03515625 C27.28298096 8.94153809 26.24955566 8.84791992 25.18481445 8.75146484 C23.4845813 8.59605225 23.4845813 8.59605225 21.75 8.4375 C4.89890411 7.01824029 -11.91696105 7.18241604 -28.8125 7.375 C-21.79617568 -0.62507555 -9.92485701 -0.12808655 0 0 Z " fill="#08B2A4" transform="translate(71.8125,33.625)"/>
<path d="M0 0 C0.65416397 -0.00418945 1.30832794 -0.00837891 1.98231506 -0.01269531 C4.12238497 -0.02251626 6.26225489 -0.02247428 8.40234375 -0.01953125 C9.13249695 -0.01925934 9.86265015 -0.01898743 10.6149292 -0.01870728 C20.92217167 -0.00110851 31.17921207 0.27054554 41.46484375 0.98046875 C42.56449463 1.05048096 43.66414551 1.12049316 44.79711914 1.19262695 C50.57297777 1.64695887 55.23247995 2.35962605 60.33984375 5.16796875 C60.83484375 6.15796875 60.83484375 6.15796875 61.33984375 7.16796875 C60.68757813 7.01199219 60.0353125 6.85601562 59.36328125 6.6953125 C54.243164 5.5549914 50.537973 5.17784889 45.33984375 6.16796875 C44.70046875 5.83796875 44.06109375 5.50796875 43.40234375 5.16796875 C41.27989574 3.89125977 41.27989574 3.89125977 38.47265625 4.6640625 C33.01611444 5.54167333 27.61877306 4.74442021 22.15234375 4.23046875 C10.84496663 3.25229978 -0.31766468 2.93753438 -11.66015625 3.16796875 C-10.66015625 1.16796875 -10.66015625 1.16796875 -9.01391602 0.5534668 C-5.98577826 0.05751933 -3.06949289 0.01933113 0 0 Z " fill="#01C2B2" transform="translate(51.66015625,39.83203125)"/>
<path d="M0 0 C0.99 0 1.98 0 3 0 C5.04296875 2.30078125 5.04296875 2.30078125 7.1875 5.3125 C7.90292969 6.29863281 8.61835937 7.28476563 9.35546875 8.30078125 C11 11 11 11 11 14 C4.73 14 -1.54 14 -8 14 C-7.05512907 9.27564533 -6.45207502 7.78396886 -3.625 4.1875 C-3.01914063 3.39730469 -2.41328125 2.60710937 -1.7890625 1.79296875 C-1.19867188 1.20128906 -0.60828125 0.60960938 0 0 Z " fill="#E3F5FB" transform="translate(72,85)"/>
<path d="M0 0 C1.11181641 -0.00257812 2.22363281 -0.00515625 3.36914062 -0.0078125 C4.52220703 -0.00007813 5.67527344 0.00765625 6.86328125 0.015625 C7.99701172 0.00789063 9.13074219 0.00015625 10.29882812 -0.0078125 C16.96998374 0.00756769 23.79784774 0.07537939 30.17578125 2.265625 C30.67078125 3.255625 30.67078125 3.255625 31.17578125 4.265625 C17.31578125 4.265625 3.45578125 4.265625 -10.82421875 4.265625 C-10.82421875 3.605625 -10.82421875 2.945625 -10.82421875 2.265625 C-7.07057379 0.53746385 -4.12114389 0.00930206 0 0 Z " fill="#009386" transform="translate(64.82421875,33.734375)"/>
<path d="M0 0 C0.99 0 1.98 0 3 0 C3 0.66 3 1.32 3 2 C25.77 1.505 25.77 1.505 49 1 C49 1.99 49 2.98 49 4 C31.84 3.67 14.68 3.34 -3 3 C-2.01 2.01 -1.02 1.02 0 0 Z " fill="#02A799" transform="translate(51,36)"/>
<path d="M0 0 C3.97243168 1.32414389 6.13488574 2.9879568 9 6 C8.29359375 5.86722656 7.5871875 5.73445313 6.859375 5.59765625 C-3.39520683 3.8327345 -13.61630713 3.39340013 -24 3 C-24 2.67 -24 2.34 -24 2 C-16.08 2 -8.16 2 0 2 C0 1.34 0 0.68 0 0 Z " fill="#10C4B5" transform="translate(89,31)"/>
<path d="M0 0 C0.66 0.33 1.32 0.66 2 1 C1.01 2.485 1.01 2.485 0 4 C1.65 4.33 3.3 4.66 5 5 C5 5.33 5 5.66 5 6 C-2.92 7.485 -2.92 7.485 -11 9 C-7.12038353 5.12038353 -4.43416733 2.7842446 0 0 Z " fill="#1CD1C3" transform="translate(60,28)"/>
<path d="M0 0 C2.35500948 0.11517421 4.70849073 0.24187978 7.0625 0.375 C8.37347656 0.44460937 9.68445313 0.51421875 11.03515625 0.5859375 C14.98136957 0.99805436 18.24117073 1.79756567 22 3 C22 3.33 22 3.66 22 4 C16.25 4.125 16.25 4.125 14 3 C11.9625237 2.77141886 9.91959697 2.58975722 7.875 2.4375 C6.23144531 2.31181641 6.23144531 2.31181641 4.5546875 2.18359375 C3.71164063 2.12300781 2.86859375 2.06242187 2 2 C1.67 2.99 1.34 3.98 1 5 C0.67 3.35 0.34 1.7 0 0 Z " fill="#046CBB" transform="translate(16,59)"/>
<path d="M0 0 C2.5625 2.0625 2.5625 2.0625 4 4 C3.34773438 3.84402344 2.69546875 3.68804687 2.0234375 3.52734375 C-3.12574422 2.38054959 -6.77177944 2.10737698 -12 3 C-13.875 1.5625 -13.875 1.5625 -15 0 C-9.90566568 -1.17561561 -5.07236377 -1.28974715 0 0 Z " fill="#0FC7B8" transform="translate(109,43)"/>
<path d="M0 0 C0.33 0 0.66 0 1 0 C1.31416607 5.23610116 0.77647622 8.51492303 -2 13 C-2.99 13.495 -2.99 13.495 -4 14 C-3.79503906 13.32453125 -3.59007813 12.6490625 -3.37890625 11.953125 C-3.10949219 11.06109375 -2.84007813 10.1690625 -2.5625 9.25 C-2.16224609 7.92742187 -2.16224609 7.92742187 -1.75390625 6.578125 C-1.11531506 4.39434165 -0.53224167 2.21164502 0 0 Z " fill="#D3FAFE" transform="translate(124,79)"/>
<path d="M0 0 C0.66 0 1.32 0 2 0 C2 1.66666667 2 3.33333333 2 5 C-0.64 5 -3.28 5 -6 5 C-5.195625 4.360625 -4.39125 3.72125 -3.5625 3.0625 C-1.7249496 1.59396498 -1.7249496 1.59396498 0 0 Z " fill="#1ECDCE" transform="translate(22,54)"/>
<path d="M0 0 C4.875 1.75 4.875 1.75 6 4 C5.34 4 4.68 4 4 4 C3.34 5.32 2.68 6.64 2 8 C1.34 5.36 0.68 2.72 0 0 Z " fill="#1DAFE0" transform="translate(24,83)"/>
</svg>
