<?xml version="1.0" encoding="UTF-8"?>
<svg version="1.1" xmlns="http://www.w3.org/2000/svg" width="80" height="70">
<path d="M0 0 C26.4 0 52.8 0 80 0 C80 23.1 80 46.2 80 70 C53.6 70 27.2 70 0 70 C0 46.9 0 23.8 0 0 Z " fill="#010101" transform="translate(0,0)"/>
<path d="M0 0 C1.03253906 0.02707031 1.03253906 0.02707031 2.0859375 0.0546875 C3.7662381 0.10136252 5.44581163 0.17309061 7.125 0.25 C7.125 3.88 7.125 7.51 7.125 11.25 C4.55338542 11.73828125 1.98177083 12.2265625 -0.58984375 12.71484375 C-2.82789844 13.02714988 -2.82789844 13.02714988 -3.875 14.25 C-4.10863881 16.09891946 -4.28803635 17.95488031 -4.4375 19.8125 C-4.581875 21.606875 -4.72625 23.40125 -4.875 25.25 C-0.915 25.25 3.045 25.25 7.125 25.25 C6.465 29.54 5.805 33.83 5.125 38.25 C1.825 38.25 -1.475 38.25 -4.875 38.25 C-4.875 47.82 -4.875 57.39 -4.875 67.25 C-9.165 67.25 -13.455 67.25 -17.875 67.25 C-17.875 57.68 -17.875 48.11 -17.875 38.25 C-21.505 38.25 -25.135 38.25 -28.875 38.25 C-28.875 33.96 -28.875 29.67 -28.875 25.25 C-25.245 25.25 -21.615 25.25 -17.875 25.25 C-17.92140625 24.23679687 -17.9678125 23.22359375 -18.015625 22.1796875 C-18.05316758 20.82815468 -18.08956506 19.47658972 -18.125 18.125 C-18.17527344 17.12726562 -18.17527344 17.12726562 -18.2265625 16.109375 C-18.32795091 10.9385661 -17.21467622 8.15366127 -13.875 4.25 C-9.36343466 0.39024722 -5.77215407 -0.29084497 0 0 Z " fill="#F7F7F7" transform="translate(51.875,2.75)"/>
</svg>
