<?xml version="1.0" encoding="UTF-8"?>
<svg version="1.1" xmlns="http://www.w3.org/2000/svg" width="512" height="512">
<path d="M0 0 C168.96 0 337.92 0 512 0 C512 168.96 512 337.92 512 512 C343.04 512 174.08 512 0 512 C0 343.04 0 174.08 0 0 Z " fill="#000000" transform="translate(0,0)"/>
<path d="M0 0 C0.84004578 0.00087616 1.68009155 0.00175232 2.54559326 0.00265503 C15.55425928 0.04738015 27.94606992 0.67548136 40.5 4.375 C41.31452637 4.61105957 42.12905273 4.84711914 42.96826172 5.09033203 C61.71898911 10.7079442 79.08898565 19.3108221 94.5 31.375 C95.4384375 32.09171875 96.376875 32.8084375 97.34375 33.546875 C130.40707308 59.57949145 151.10079422 97.77202074 157.05078125 139.2109375 C160.14463043 168.8257239 157.21059363 197.90108897 145.5 225.375 C145.20254883 226.09059082 144.90509766 226.80618164 144.59863281 227.54345703 C137.431859 244.58488297 127.03646186 259.82668535 114.5 273.375 C113.7889209 274.14384521 113.7889209 274.14384521 113.06347656 274.92822266 C97.26420461 291.78816718 78.53539996 303.11577796 57.5 312.375 C56.16195312 312.97054687 56.16195312 312.97054687 54.796875 313.578125 C52.37036368 314.41997586 50.43683316 314.67429467 47.875 314.6875 C47.11960937 314.70425781 46.36421875 314.72101563 45.5859375 314.73828125 C42.97402748 314.28339804 42.13794889 313.41499089 40.5 311.375 C39.20479925 308.78459849 39.36832125 306.89907886 39.3581543 303.99829102 C39.34760262 302.3099691 39.34760262 302.3099691 39.33683777 300.58753967 C39.33267349 299.36369064 39.32850922 298.13984161 39.32421875 296.87890625 C39.30100447 294.29230971 39.2768865 291.70572116 39.25195312 289.11914062 C39.21570513 285.03784286 39.18588151 280.95669103 39.17407227 276.87524414 C39.16193701 272.93868795 39.11822327 269.00273804 39.07421875 265.06640625 C39.07708138 263.25795982 39.07708138 263.25795982 39.08000183 261.41297913 C38.92047967 250.25076319 35.87739132 241.49676054 29.5 232.375 C30.12865967 232.24971924 30.75731934 232.12443848 31.4050293 231.99536133 C53.10517317 227.61881169 74.10082978 222.66324269 87.51171875 203.46875 C97.5399531 187.86489616 99.81930984 171.09941003 100 152.875 C100.01853027 151.71863037 100.03706055 150.56226074 100.05615234 149.37084961 C99.97800289 138.69425554 97.08322743 129.60243744 91.9375 120.3125 C91.06931641 118.71728516 91.06931641 118.71728516 90.18359375 117.08984375 C88.71752478 114.41824501 88.71752478 114.41824501 86.8762207 112.98950195 C85.5 111.375 85.5 111.375 85.41699219 109.25488281 C85.54235352 108.45405273 85.66771484 107.65322266 85.796875 106.828125 C87.60311421 93.21717485 87.23932241 79.61843355 83.5 66.375 C69.49630401 67.44715797 58.20266551 72.06516528 46.6875 79.9375 C42.44081427 82.64848388 40.01427556 83.93339329 35 83 C34.15800049 82.74387939 33.31600098 82.48775879 32.44848633 82.22387695 C22.19171897 79.27092671 11.72310128 79.06204098 1.125 79.125 C-0.16921875 79.11726563 -1.4634375 79.10953125 -2.796875 79.1015625 C-13.37364431 79.12267382 -24.46401276 79.41184619 -34.5 83.0625 C-39.457859 84.13779723 -42.67622899 81.95655287 -46.75 79.375 C-48.04728254 78.5325748 -49.34284896 77.68750121 -50.63671875 76.83984375 C-60.57847293 70.3472188 -70.74397963 67.41124496 -82.5 66.375 C-86.45198905 80.3716279 -86.63917271 94.83608937 -84.4597168 109.17553711 C-84.52456779 112.71640136 -86.49335472 114.53477394 -88.73828125 117.109375 C-95.0948994 125.28418327 -98.70800641 136.23340686 -98.8359375 146.49609375 C-98.84864182 147.48211327 -98.84864182 147.48211327 -98.86160278 148.48805237 C-98.88123012 150.59646692 -98.88147291 152.704011 -98.875 154.8125 C-98.8737915 155.53219971 -98.87258301 156.25189941 -98.87133789 156.9934082 C-98.78222459 176.47444597 -94.45748705 195.03498696 -81.59765625 210.35546875 C-67.36313482 224.05984041 -47.80901371 230.34479513 -28.5 232.375 C-29.22316406 233.50035156 -29.22316406 233.50035156 -29.9609375 234.6484375 C-33.98196037 241.16413578 -36.67114876 246.72927023 -37.5 254.375 C-47.41001031 258.44064526 -58.11596653 260.92776355 -68.4375 256.75 C-70.5625 255.609375 -70.5625 255.609375 -72.5 254.375 C-73.36625 253.82585937 -73.36625 253.82585937 -74.25 253.265625 C-79.18353874 249.56547094 -82.33284331 244.49893547 -85.80395508 239.49536133 C-90.70888318 232.50366701 -95.87516771 227.22317835 -104.5 225.375 C-107.5212661 225.16322901 -110.47856051 225.18616003 -113.5 225.375 C-113.83 226.365 -114.16 227.355 -114.5 228.375 C-112.14214271 230.81145253 -109.8026497 233.12449603 -107.1875 235.2890625 C-97.80319497 243.15700117 -93.11553731 252.75707516 -87.95703125 263.68359375 C-83.4166656 272.07048902 -75.35294465 277.16218532 -66.3203125 279.9140625 C-57.18262538 281.40747951 -47.60097148 280.74764161 -38.5 279.375 C-38.40077415 283.55584291 -38.32836626 287.73605371 -38.28027344 291.91772461 C-38.26021579 293.33874457 -38.23296222 294.75968259 -38.19824219 296.18041992 C-38.14945989 298.22855895 -38.12697461 300.27560275 -38.109375 302.32421875 C-38.0779541 304.17019653 -38.0779541 304.17019653 -38.04589844 306.0534668 C-38.58720459 310.01285939 -39.62723039 311.63710965 -42.5 314.375 C-51.54300579 316.18360116 -59.57847401 311.26085495 -67.5 307.375 C-68.45664551 306.91794678 -68.45664551 306.91794678 -69.43261719 306.45166016 C-84.99832538 298.96111983 -98.11305187 288.30387917 -110.5 276.375 C-111.14066406 275.78589844 -111.78132813 275.19679688 -112.44140625 274.58984375 C-134.52733518 253.73375773 -148.37366026 222.69924816 -154.5 193.375 C-154.66846436 192.6931665 -154.83692871 192.01133301 -155.01049805 191.30883789 C-156.96521424 182.43381688 -156.83711181 173.52100741 -156.81567383 164.47973633 C-156.81252636 161.71069466 -156.83599299 158.94273748 -156.86132812 156.17382812 C-156.91409591 141.65067286 -155.05531614 128.3006546 -150.75 114.375 C-150.49250977 113.53598145 -150.23501953 112.69696289 -149.96972656 111.83251953 C-141.86337971 86.17539652 -127.93744012 64.76658466 -109.5 45.375 C-108.86964844 44.68019531 -108.23929688 43.98539063 -107.58984375 43.26953125 C-80.21907749 14.09409908 -39.15068235 -0.09977828 0 0 Z " fill="#FDFDFD" transform="translate(255.5,98.625)"/>
</svg>
