<?xml version="1.0" encoding="UTF-8"?>
<svg version="1.1" xmlns="http://www.w3.org/2000/svg" width="157" height="142">
<path d="M0 0 C51.81 0 103.62 0 157 0 C157 46.86 157 93.72 157 142 C105.19 142 53.38 142 0 142 C0 95.14 0 48.28 0 0 Z " fill="#F8F9F9" transform="translate(0,0)"/>
<path d="M0 0 C9.58104313 4.27240343 17.43996227 14.24423393 24.8125 21.5 C25.72708984 22.37720703 26.64167969 23.25441406 27.58398438 24.15820312 C33.9494631 30.44035194 40.03153824 37.21981073 40.5625 46.5625 C39.8013937 55.74970439 35.53782264 62.43858773 29.07421875 68.71484375 C28.07549492 69.7150631 28.07549492 69.7150631 27.05659485 70.73548889 C25.65762453 72.12981307 24.25134864 73.51684287 22.83813477 74.89672852 C20.68579651 77.00166597 18.56157193 79.13222212 16.43945312 81.26757812 C15.0692876 82.62659408 13.69759346 83.98407097 12.32421875 85.33984375 C11.69480881 85.97107651 11.06539886 86.60230927 10.41691589 87.25267029 C4.80989496 92.68365085 -0.3505201 95.48324588 -8.375 95.5625 C-9.41398437 95.5934375 -10.45296875 95.624375 -11.5234375 95.65625 C-21.92656536 93.87953603 -28.82567636 85.88966431 -35.93994141 78.69897461 C-37.74454709 76.88049483 -39.57188801 75.08733516 -41.40234375 73.29492188 C-48.52399138 66.22337433 -54.74974146 59.72564256 -56.6640625 49.5234375 C-56.65117188 48.50507812 -56.63828125 47.48671875 -56.625 46.4375 C-56.63789062 45.41398437 -56.65078125 44.39046875 -56.6640625 43.3359375 C-55.14864324 35.86581197 -49.70729354 30.3097431 -44.44921875 25.078125 C-43.83158157 24.45524597 -43.2139444 23.83236694 -42.57759094 23.19061279 C-41.27953151 21.88617633 -39.97765047 20.58553248 -38.67211914 19.28857422 C-36.69074327 17.31572931 -34.72879174 15.32489713 -32.76757812 13.33203125 C-31.49592338 12.05876455 -30.22317271 10.78659125 -28.94921875 9.515625 C-28.37185471 8.92702698 -27.79449066 8.33842896 -27.19963074 7.73199463 C-19.32197463 -0.01460053 -10.88393989 -3.20374037 0 0 Z " fill="#0285C1" transform="translate(80,25.9375)"/>
<path d="M0 0 C0.45890625 0.39832031 0.9178125 0.79664063 1.390625 1.20703125 C2.00421875 1.73683594 2.6178125 2.26664063 3.25 2.8125 C3.85328125 3.33457031 4.4565625 3.85664062 5.078125 4.39453125 C5.71234375 4.92433594 6.3465625 5.45414063 7 6 C7.6290625 6.54140625 8.258125 7.0828125 8.90625 7.640625 C11.41109283 9.26690356 13.2992748 9.56233637 16.25 9.9375 C28.10838662 11.94261689 36.58753489 19.26354636 43.99609375 28.484375 C47.65108851 34.06257149 48.81931978 39.43986411 50.078125 45.92578125 C51.50507722 50.68430413 54.37610611 53.71367431 58 57 C52.27992123 64.08200228 46.50100095 71.20000636 36.984375 72.37109375 C35.91703125 72.39300781 34.8496875 72.41492188 33.75 72.4375 C32.16445312 72.49744141 32.16445312 72.49744141 30.546875 72.55859375 C20.1026854 70.91374891 13.17476292 62.82760831 6.06005859 55.63647461 C4.25545291 53.81799483 2.42811199 52.02483516 0.59765625 50.23242188 C-6.52399138 43.16087433 -12.74974146 36.66314256 -14.6640625 26.4609375 C-14.53005962 15.87471025 -11.45771955 11.38489178 -4.1875 4 C-2.79898237 2.65904986 -1.40565772 1.32297197 0 0 Z " fill="#244B7F" transform="translate(38,49)"/>
<path d="M0 0 C3.83078469 1.56069006 6.14143762 4.06814114 9 7 C12.25448125 9.16965417 13.81634566 9.33665767 17.625 9.75 C24.01553617 10.73671729 28.01908448 12.99214535 33 17 C33.61488281 17.45375 34.22976562 17.9075 34.86328125 18.375 C42.42688283 24.27829879 46.88551383 31.29400697 49 40.625 C50.55628548 47.36207792 52.81924452 51.44500993 58 56 C56.07712966 60.29378813 53.37521131 62.77153701 50 66 C45.8787307 64.47360396 43.08755637 61.80462493 41 58 C40.47848318 55.95256358 40.02655722 53.88680169 39.625 51.8125 C37.07501771 39.42888433 29.32787185 30.69015945 19.0390625 23.66015625 C14.98698355 21.39475346 11.04794176 20.59783264 6.5 19.75 C-0.28204233 18.3525361 -3.78388487 15.36249085 -8 10 C-6.07712966 5.70621187 -3.37521131 3.22846299 0 0 Z " fill="#05D6C9" transform="translate(47,40)"/>
<path d="M0 0 C-1.42251846 3.69854799 -3.7788743 5.84505071 -6.66015625 8.4375 C-8.21775172 10.25393787 -8.59277139 11.66723365 -9 14 C-9.99 12.68 -10.98 11.36 -12 10 C-10.38113585 8.32737283 -8.7547271 6.66204463 -7.125 5 C-6.22007813 4.071875 -5.31515625 3.14375 -4.3828125 2.1875 C-2 0 -2 0 0 0 Z " fill="#0977AB" transform="translate(60,29)"/>
<path d="M0 0 C3.96 0 7.92 0 12 0 C12 0.66 12 1.32 12 2 C13.65 2 15.3 2 17 2 C17.33 2.99 17.66 3.98 18 5 C16.88625 4.690625 15.7725 4.38125 14.625 4.0625 C9.79490988 2.84199336 4.95709931 2.38600363 0 2 C0 1.34 0 0.68 0 0 Z " fill="#D4F7FC" transform="translate(66,23)"/>
<path d="M0 0 C1.875 0.125 1.875 0.125 4 1 C5.98299181 5.24209639 6.27137621 9.11136312 6.25 13.75 C6.25773437 15.44382812 6.25773437 15.44382812 6.265625 17.171875 C6 20 6 20 4 22 C4.06960937 20.74896484 4.06960937 20.74896484 4.140625 19.47265625 C4.38117506 11.97264893 3.78183434 6.53379414 0 0 Z " fill="#CCF4FB" transform="translate(115,59)"/>
<path d="M0 0 C0.66 0.66 1.32 1.32 2 2 C-1.63 5.63 -5.26 9.26 -9 13 C-9.33 12.01 -9.66 11.02 -10 10 C-6.7 6.7 -3.4 3.4 0 0 Z " fill="#173A5C" transform="translate(38,49)"/>
<path d="M0 0 C0.99 0.33 1.98 0.66 3 1 C-0.33333333 4.33333333 -3.66666667 7.66666667 -7 11 C-7 7 -7 7 -5.46875 5.078125 C-4.8190625 4.47484375 -4.169375 3.8715625 -3.5 3.25 C-2.8503125 2.63640625 -2.200625 2.0228125 -1.53125 1.390625 C-1.0259375 0.93171875 -0.520625 0.4728125 0 0 Z " fill="#14CEC3" transform="translate(47,40)"/>
<path d="M0 0 C-1.39332574 3.36720387 -2.9789286 4.9859524 -6 7 C-6 4 -6 4 -4.125 1.8125 C-2 0 -2 0 0 0 Z " fill="#117BB0" transform="translate(60,29)"/>
</svg>
