<?xml version="1.0" encoding="UTF-8"?>
<svg version="1.1" xmlns="http://www.w3.org/2000/svg" width="82" height="65">
<path d="M0 0 C27.06 0 54.12 0 82 0 C82 21.45 82 42.9 82 65 C54.94 65 27.88 65 0 65 C0 43.55 0 22.1 0 0 Z " fill="#060606" transform="translate(0,0)"/>
<path d="M0 0 C27.06 0 54.12 0 82 0 C82 21.45 82 42.9 82 65 C54.94 65 27.88 65 0 65 C0 43.55 0 22.1 0 0 Z M15.6875 11.625 C11.81168417 17.07985191 12.66313518 23.33836415 12.5949707 29.81054688 C12.57347104 31.34300381 12.53946323 32.87534063 12.49243164 34.40722656 C11.97720035 45.76111752 11.97720035 45.76111752 17.11694336 55.55029297 C24.13944528 60.95669986 30.87667609 60.48396201 39.375 60.4375 C40.6640625 60.45748047 41.953125 60.47746094 43.28125 60.49804688 C50.65519804 60.49426148 55.78665187 60.08970378 62 56 C68.38182117 49.2822935 68.34532643 43.61255082 68.31567383 34.63769531 C68.31252147 32.63861644 68.33683142 30.63955627 68.36132812 28.640625 C68.36197266 27.36960937 68.36261719 26.09859375 68.36328125 24.7890625 C68.36626221 23.63100098 68.36924316 22.47293945 68.37231445 21.27978516 C67.76288447 15.91120652 65.63228178 12.04876143 61.4375 8.6875 C60.83808594 8.19636719 60.23867188 7.70523437 59.62109375 7.19921875 C54.75174536 3.59707428 48.32865583 4.73599051 42.50683594 4.70483398 C40.27215531 4.68767017 38.03897379 4.64379157 35.8046875 4.59960938 C34.37501085 4.58947757 32.94532164 4.58096299 31.515625 4.57421875 C30.21915039 4.55963623 28.92267578 4.54505371 27.58691406 4.5300293 C22.22573489 5.23247076 19.20124464 7.63642501 15.6875 11.625 Z " fill="#010101" transform="translate(0,0)"/>
<path d="M0 0 C2.23468062 -0.01716382 4.46786215 -0.06104241 6.70214844 -0.10522461 C8.13182509 -0.11535641 9.56151429 -0.12387099 10.99121094 -0.13061523 C12.93592285 -0.15248901 12.93592285 -0.15248901 14.91992188 -0.17480469 C20.22278696 0.51999624 24.01250259 3.21029978 27.31933594 7.35766602 C31.49076001 12.95929263 30.79585959 18.7267915 30.85693359 25.47216797 C30.88153625 27.45847093 30.93813204 29.44429385 30.99511719 31.42993164 C31.06368042 38.92998773 30.83163662 44.65703139 25.50683594 50.29516602 C18.60399223 55.67938411 12.80425267 55.56853457 4.32983398 55.64526367 C2.34353102 55.66986633 0.3577081 55.72646211 -1.62792969 55.78344727 C-8.21193936 55.84363628 -13.36342061 55.79277018 -18.87329102 51.96166992 C-23.56981903 47.12994419 -25.00133813 43.41651154 -25.02441406 36.70141602 C-25.02824097 35.99166626 -25.03206787 35.2819165 -25.03601074 34.55065918 C-25.03871868 33.05809094 -25.03143597 31.56547433 -25.01464844 30.07299805 C-24.99321829 27.80091589 -25.01448353 25.53199472 -25.04003906 23.26000977 C-25.03739558 21.8029716 -25.03227017 20.34593539 -25.02441406 18.88891602 C-25.01990234 17.57600586 -25.01539063 16.2630957 -25.01074219 14.91040039 C-24.24350032 9.5512883 -21.86686955 6.50533513 -17.86816406 2.98266602 C-12.44397494 -0.8713631 -6.4233801 0.03437589 0 0 Z M-18.49316406 11.29516602 C-20.76513195 15.83910179 -19.72331884 22.11907426 -19.74316406 27.10766602 C-19.76378906 28.3922168 -19.78441406 29.67676758 -19.80566406 31.00024414 C-19.81082031 32.23838867 -19.81597656 33.4765332 -19.82128906 34.75219727 C-19.83063477 35.88633057 -19.83998047 37.02046387 -19.84960938 38.18896484 C-19.44833193 41.68585042 -18.55741839 43.47359519 -16.49316406 46.29516602 C-16.07856934 46.88507324 -15.66397461 47.47498047 -15.23681641 48.08276367 C-12.46532978 50.00984328 -9.92435286 49.68459873 -6.59472656 49.69360352 C-5.92275238 49.69647369 -5.2507782 49.69934387 -4.55844116 49.70230103 C-3.13791053 49.70434051 -1.71735175 49.69881859 -0.296875 49.6862793 C1.86750887 49.67027198 4.03001137 49.68610354 6.19433594 49.70532227 C7.57715253 49.70333883 8.95996796 49.69949307 10.34277344 49.69360352 C11.59622559 49.69021973 12.84967773 49.68683594 14.14111328 49.68334961 C17.7895792 49.26255599 19.64273478 48.56447963 22.50683594 46.29516602 C25.95694756 41.58305704 24.87875222 35.01572806 24.87744141 29.45068359 C24.88181547 27.36741411 24.9181615 25.28626426 24.95605469 23.20336914 C24.95992187 21.88401367 24.96378906 20.5646582 24.96777344 19.20532227 C24.9801001 17.39753296 24.9801001 17.39753296 24.99267578 15.55322266 C24.40898056 11.6389449 23.30107662 10.0540871 20.50683594 7.29516602 C15.4461479 3.7897203 8.58648327 4.84299674 2.69433594 4.79516602 C1.43556641 4.75391602 0.17679688 4.71266602 -1.12011719 4.67016602 C-8.67811556 4.60641906 -13.7328224 5.01797321 -18.49316406 11.29516602 Z " fill="#ECECEC" transform="translate(37.4931640625,4.704833984375)"/>
<path d="M0 0 C3.95664641 2.05779073 6.42868719 4.11551757 8.03515625 8.2734375 C8.56452767 13.03778031 8.55403509 15.23567982 6.41015625 19.5234375 C3.41605775 22.9902884 0.72708476 25.74581951 -3.91796875 26.65625 C-8.99545448 26.94694575 -12.08497343 25.70216011 -15.96484375 22.2734375 C-19.01630811 17.79795643 -19.9153816 13.56476486 -18.96484375 8.2734375 C-15.01574597 0.52150483 -8.5066791 -3.14561096 0 0 Z " fill="#EFEFEF" transform="translate(45.96484375,19.7265625)"/>
<path d="M0 0 C4.4297642 0.79102932 5.89210172 1.98974785 8.5 5.625 C9.2446324 9.59637281 8.87266878 11.06599683 6.625 14.4375 C4.12980912 17.00607884 3.21830363 17.52922618 -0.3125 18 C-3.5 17.625 -3.5 17.625 -6.375 15.5625 C-8.5 12.625 -8.5 12.625 -9.125 9.125 C-8.11027445 3.44253693 -5.68246307 1.01472555 0 0 Z " fill="#090909" transform="translate(40.5,23.375)"/>
<path d="M0 0 C1.67542976 0.28604898 3.34385343 0.61781233 5 1 C4.67 2.65 4.34 4.3 4 6 C1.03 5.505 1.03 5.505 -2 5 C-1.125 1.125 -1.125 1.125 0 0 Z " fill="#E3E3E3" transform="translate(53,15)"/>
</svg>
