<?xml version="1.0" encoding="UTF-8"?>
<svg version="1.1" xmlns="http://www.w3.org/2000/svg" width="70" height="69">
<path d="M0 0 C23.1 0 46.2 0 70 0 C70 22.77 70 45.54 70 69 C46.9 69 23.8 69 0 69 C0 46.23 0 23.46 0 0 Z " fill="#042F6F" transform="translate(0,0)"/>
<path d="M0 0 C5.56774801 4.10927482 9.19715681 9.31134508 11 16 C12.20339436 24.47338506 10.55928482 32.07175948 5.52734375 39.0390625 C0.64538486 44.46346127 -5.32824469 47.29524065 -12.51171875 48.37890625 C-20.57767803 48.77144116 -27.85891303 46.30102301 -33.875 40.875 C-39.30102301 34.85891303 -41.77144116 27.57767803 -41.37890625 19.51171875 C-40.29509455 12.32727622 -37.46199075 6.36017502 -32.04296875 1.47265625 C-22.03302461 -5.7429249 -10.63157443 -6.03944901 0 0 Z " fill="#3198EE" transform="translate(49,14)"/>
<path d="M0 0 C3 2.625 3 2.625 5 6 C5.39321751 11.8982626 1.31920443 16.43228747 -2 21 C-5.80149136 19.54601078 -6.99364507 17.80320598 -8.75 14.1875 C-9.39195313 12.90939453 -9.39195313 12.90939453 -10.046875 11.60546875 C-11.06075076 8.83393133 -11.30036551 6.92487074 -11 4 C-8.01674402 -0.41521885 -5.13385432 -0.9006762 0 0 Z " fill="#EAF9FE" transform="translate(37,24)"/>
<path d="M0 0 C0.99 0.33 1.98 0.66 3 1 C3 2.32 3 3.64 3 5 C1.35 4.67 -0.3 4.34 -2 4 C-1.34 2.68 -0.68 1.36 0 0 Z " fill="#57A0DE" transform="translate(33,29)"/>
</svg>
