<?xml version="1.0" encoding="UTF-8"?>
<svg version="1.1" xmlns="http://www.w3.org/2000/svg" width="76" height="70">
<path d="M0 0 C25.08 0 50.16 0 76 0 C76 23.1 76 46.2 76 70 C50.92 70 25.84 70 0 70 C0 46.9 0 23.8 0 0 Z " fill="#042E6F" transform="translate(0,0)"/>
<path d="M0 0 C6.80926454 3.92752801 11.24339972 9.73078254 13.2890625 17.3203125 C14.49245686 25.79369756 12.84834732 33.39207198 7.81640625 40.359375 C2.20057787 46.59918431 -4.89923625 49.43670424 -13.2109375 49.8828125 C-21.13039382 49.53605664 -27.26033999 46.23478407 -32.6484375 40.5078125 C-37.64837527 34.18713645 -39.38521361 28.18811875 -39.1171875 20.125 C-37.98491497 12.30796465 -33.84229326 6.5461176 -27.73828125 1.7265625 C-19.04341659 -4.30455749 -9.48132886 -4.30422231 0 0 Z " fill="#3298EE" transform="translate(49.7109375,13.6796875)"/>
<path d="M0 0 C3.5383572 0.48484778 4.81511353 0.79485025 7.625 3.125 C9.37767206 6.63034411 10.0625 9.06520537 10.0625 13 C8.355801 16.47904028 7.00957175 18.42677236 3.6875 20.4375 C-0.79949564 21.39899907 -3.76900125 20.64916597 -7.75 18.4375 C-10.34277799 15.54840453 -10.82390503 13.76011374 -11.078125 9.9609375 C-10.86602061 7.0032596 -9.76683225 5.28666531 -7.9375 3 C-7.50824219 2.45988281 -7.07898438 1.91976563 -6.63671875 1.36328125 C-4.30099796 -0.51066486 -2.9416317 -0.2831044 0 0 Z " fill="#EFFAFE" transform="translate(36.9375,25)"/>
<path d="M0 0 C0.598125 0.226875 1.19625 0.45375 1.8125 0.6875 C0.8225 0.6875 -0.1675 0.6875 -1.1875 0.6875 C-1.435 1.30625 -1.6825 1.925 -1.9375 2.5625 C-3.39378639 5.03818687 -4.56562506 5.63875002 -7.1875 6.6875 C-3.9375 -0.5625 -3.9375 -0.5625 0 0 Z " fill="#D3F0FD" transform="translate(34.1875,25.3125)"/>
<path d="M0 0 C0.33 0 0.66 0 1 0 C1.103125 0.94875 1.20625 1.8975 1.3125 2.875 C1.68539295 6.29107501 1.68539295 6.29107501 5 8 C5 8.66 5 9.32 5 10 C2.525 9.01 2.525 9.01 0 8 C0 5.36 0 2.72 0 0 Z " fill="#5E99C9" transform="translate(36,29)"/>
</svg>
