<?xml version="1.0" encoding="UTF-8"?>
<svg version="1.1" xmlns="http://www.w3.org/2000/svg" width="81" height="74">
<path d="M0 0 C26.73 0 53.46 0 81 0 C81 24.42 81 48.84 81 74 C54.27 74 27.54 74 0 74 C0 49.58 0 25.16 0 0 Z " fill="#020202" transform="translate(0,0)"/>
<path d="M0 0 C4.98100217 -1.04710119 9.06151228 -1.36372453 14 0 C18.82947009 4.35180045 21.91478886 10.35847106 25 16 C28.9538363 14.20506735 30.86997017 11.99308369 33.5625 8.5625 C39.22985064 1.38513014 39.22985064 1.38513014 41 0 C42.32 0 43.64 0 45 0 C45 0.66 45 1.32 45 2 C44.34 2 43.68 2 43 2 C42.773125 2.54785156 42.54625 3.09570312 42.3125 3.66015625 C40.01825593 7.75019255 36.53814455 10.87510765 33.3125 14.24609375 C31.05117809 16.93905312 29.87976435 18.62625941 29 22 C29.95469518 24.41863182 29.95469518 24.41863182 31.76171875 26.65234375 C32.38626953 27.51150391 33.01082031 28.37066406 33.65429688 29.25585938 C34.32525391 30.14080078 34.99621094 31.02574219 35.6875 31.9375 C36.98658268 33.69402426 38.28225583 35.45307614 39.57421875 37.21484375 C40.17927246 38.03839355 40.78432617 38.86194336 41.40771484 39.71044922 C43.26899555 42.38678937 44.68994868 45.02171854 46 48 C41.01995601 49.04689976 36.93950972 49.35397728 32 48 C27.24012956 43.79893755 23.66085447 37.72916774 21 32 C21 31.34 21 30.68 21 30 C15.27141509 35.54379185 9.42701338 41.35947993 5 48 C2.375 48.1875 2.375 48.1875 0 48 C5.12216847 40.80127674 10.97198312 34.43560521 17 28 C15.61791193 24.09226876 13.79890116 21.11956009 11.3125 17.8125 C10.60738281 16.86117188 9.90226562 15.90984375 9.17578125 14.9296875 C8.45777344 13.96289062 7.73976563 12.99609375 7 12 C5.65808507 10.1520346 4.32410949 8.29826486 3 6.4375 C2.4225 5.63183594 1.845 4.82617188 1.25 3.99609375 C0 2 0 2 0 0 Z " fill="#E7E7E7" transform="translate(18,13)"/>
<path d="M0 0 C2.6953125 -0.37890625 2.6953125 -0.37890625 6 0 C7.97840128 2.01338908 9.34502645 3.73789831 10.875 6.0625 C11.54861572 7.03364746 11.54861572 7.03364746 12.23583984 8.02441406 C13.25328373 9.4945443 14.26198179 10.970751 15.26367188 12.45166016 C17.22308479 15.32741269 19.22592725 18.17000749 21.234375 21.01171875 C27.13474281 29.38814545 27.13474281 29.38814545 29.7890625 33.203125 C30.38412598 34.05551758 30.97918945 34.90791016 31.59228516 35.78613281 C33 38 33 38 34 41 C31.40625 41.546875 31.40625 41.546875 28 41 C25.36551986 38.41430653 23.48858006 35.34515163 21.5 32.25 C20.27934912 30.42531058 19.05797232 28.6011066 17.8359375 26.77734375 C17.21041992 25.82972168 16.58490234 24.88209961 15.94042969 23.90576172 C12.76032109 19.1436011 9.4352338 14.48466831 6.125 9.8125 C4.93736179 8.13344682 3.75221807 6.45262463 2.5703125 4.76953125 C2.07289551 4.06417236 1.57547852 3.35881348 1.06298828 2.63208008 C0 1 0 1 0 0 Z " fill="#0D0D0D" transform="translate(24,17)"/>
<path d="M0 0 C0 0.66 0 1.32 0 2 C-0.66 2 -1.32 2 -2 2 C-2.2475 2.598125 -2.495 3.19625 -2.75 3.8125 C-4.22582241 6.39518922 -5.53578173 7.33498766 -8 9 C-9.25159105 9.89360909 -10.50149452 10.78958495 -11.75 11.6875 C-12.8225 12.450625 -13.895 13.21375 -15 14 C-13.42789712 10.38247294 -11.22276812 7.70161694 -8.625 4.75 C-7.85414062 3.85796875 -7.08328125 2.9659375 -6.2890625 2.046875 C-4 0 -4 0 0 0 Z " fill="#DADADA" transform="translate(63,13)"/>
<path d="M0 0 C1.98 0 3.96 0 6 0 C4.35830472 2.02054804 2.69088222 4.02043058 1 6 C0.67 6 0.34 6 0 6 C0 4.02 0 2.04 0 0 Z " fill="#747474" transform="translate(0,0)"/>
</svg>
