<svg width="24" height="24" viewBox="0 0 24 24" fill="none" xmlns="http://www.w3.org/2000/svg">
<path fill-rule="evenodd" clip-rule="evenodd" d="M10.091 15.1776C9.92725 15.1776 9.76355 15.1153 9.63906 14.99C9.00981 14.3616 8.66278 13.526 8.66278 12.6375C8.66278 10.7958 10.16 9.29771 12 9.29771C12.8851 9.29771 13.7445 9.65497 14.3576 10.2783C14.6049 10.5306 14.6023 10.9348 14.3499 11.1821C14.0984 11.431 13.6942 11.4268 13.4461 11.1761C13.0718 10.795 12.5449 10.5767 12 10.5767C10.8652 10.5767 9.94175 11.5009 9.94175 12.6375C9.94175 13.1841 10.1558 13.6991 10.5429 14.0862C10.7927 14.336 10.7927 14.7401 10.5437 14.99C10.4184 15.1153 10.2547 15.1776 10.091 15.1776Z" fill="#CACED8"/>
<path fill-rule="evenodd" clip-rule="evenodd" d="M12.484 15.9223C12.1813 15.9223 11.9118 15.7057 11.8556 15.397C11.7925 15.05 12.0227 14.7166 12.3706 14.6535C13.2062 14.5017 13.8678 13.8384 14.0179 13.0019C14.081 12.6549 14.4135 12.4264 14.7605 12.4861C15.1084 12.5483 15.3395 12.8809 15.2772 13.2287C15.0325 14.587 13.9565 15.6648 12.5991 15.912C12.5607 15.9188 12.5215 15.9223 12.484 15.9223Z" fill="#CACED8"/>
<mask id="mask0_10_4112" style="mask-type:luminance" maskUnits="userSpaceOnUse" x="3" y="5" width="15" height="13">
<path fill-rule="evenodd" clip-rule="evenodd" d="M3.47357 5.80424H17.1894V17.8249H3.47357V5.80424Z" fill="white"/>
</mask>
<g mask="url(#mask0_10_4112)">
<path fill-rule="evenodd" clip-rule="evenodd" d="M7.44221 17.8249C7.30408 17.8249 7.1651 17.7798 7.04743 17.6885C5.60561 16.5562 4.38718 14.8961 3.52601 12.889C3.45609 12.727 3.45609 12.5445 3.52601 12.3834C4.39656 10.3677 5.62266 8.69908 7.07216 7.5591C10.0274 5.22029 13.9615 5.21262 16.9466 7.57615C17.2238 7.79528 17.2706 8.19773 17.0515 8.47484C16.8315 8.75024 16.4308 8.79884 16.1528 8.57886C13.6239 6.57685 10.3659 6.58367 7.86427 8.56351C6.63987 9.527 5.58856 10.9305 4.81265 12.6374C5.58088 14.3342 6.62282 15.7291 7.83783 16.6824C8.1158 16.9007 8.16355 17.3031 7.94527 17.5802C7.81908 17.7405 7.63149 17.8249 7.44221 17.8249Z" fill="#CACED8"/>
</g>
<mask id="mask1_10_4112" style="mask-type:luminance" maskUnits="userSpaceOnUse" x="9" y="9" width="12" height="11">
<path fill-rule="evenodd" clip-rule="evenodd" d="M9.20087 9.31529H20.5261V19.5029H9.20087V9.31529Z" fill="white"/>
</mask>
<g mask="url(#mask1_10_4112)">
<path fill-rule="evenodd" clip-rule="evenodd" d="M11.9998 19.5029C11.2009 19.5029 10.4062 19.3733 9.63881 19.1183C9.30372 19.0066 9.12211 18.6443 9.23381 18.3092C9.3455 17.9732 9.70617 17.795 10.043 17.9042C10.6799 18.1165 11.3381 18.2239 11.9998 18.2239C14.9227 18.2239 17.594 16.1417 19.1876 12.6365C18.7988 11.7847 18.346 11.0131 17.8396 10.3395C17.6272 10.0573 17.6835 9.65567 17.9657 9.44336C18.2471 9.23106 18.6487 9.28904 18.861 9.57041C19.4783 10.3898 20.0206 11.3371 20.4734 12.3824C20.5441 12.5444 20.5441 12.7286 20.4734 12.8898C18.6862 17.0311 15.5187 19.5029 11.9998 19.5029Z" fill="#CACED8"/>
</g>
<mask id="mask2_10_4112" style="mask-type:luminance" maskUnits="userSpaceOnUse" x="4" y="5" width="16" height="15">
<path fill-rule="evenodd" clip-rule="evenodd" d="M4.63641 5.27226H19.3646V20H4.63641V5.27226Z" fill="white"/>
</mask>
<g mask="url(#mask2_10_4112)">
<path fill-rule="evenodd" clip-rule="evenodd" d="M5.27568 19.9999C5.11198 19.9999 4.94827 19.9376 4.82378 19.8123C4.57396 19.5625 4.57396 19.1583 4.82378 18.9085L18.2734 5.45888C18.5232 5.20906 18.9274 5.20906 19.1772 5.45888C19.427 5.70871 19.427 6.11371 19.1772 6.36354L5.72759 19.8123C5.6031 19.9376 5.43939 19.9999 5.27568 19.9999Z" fill="#CACED8"/>
</g>
</svg>
